<?xml version="1.0" encoding="UTF-8"?>
<svg id="Layer_1" xmlns="http://www.w3.org/2000/svg" viewBox="0 0 1125 972">
  <defs>
    <style>
      .cls-1 {
        fill: #0f5cb4;
      }

      .cls-2 {
        fill: #fff;
      }
    </style>
  </defs>
  <path class="cls-2" d="M898.5,268v705c-223.33,0-446.67,0-670,0,0-324,0-648,0-972,223.33,0,446.67,0,670,0,0,88.83,0,177.67,0,267M706.14,330.54c-3.14,8.74,7.51,7.43,9.54,12.71.48,1.26,4.96,1,7.6,1.42.11.02.27-.17.39-.29.61-.61,1.22-1.23,1.83-1.84-.63-.51-1.22-1.08-1.88-1.54-1.58-1.09-3.21-2.13-4.81-3.2-4.31-2.9-6.46-9.55-13.32-8.53-.27-3.27-.52-6.54-.81-9.81-.82-9.29-.47-13.71,10.48-12.27.51.07,1,.26,1.5.4.4-.3.81-.6,1.21-.91-.75-1.35-1.25-2.92-2.28-4.01-3.72-3.94-4.08-8.2-.25-9.81,2.69-1.13,6.06-1.96,8.81-1.4,6.91,1.41,11.46,6.95,16.51,11.32,4.33,3.76,7.29,9.29,11.95,12.44,5.54,3.75,4.27,6.57.85,10.32-.3.33-.54.71-.9,1.18,4.86,4.01,9.67,7.74,16.45,7.37,1.12-.06,2.44.69,3.43,1.38,3.82,2.67,7.5,5.53,11.32,8.21,2.62,1.84,4.09.49,4.72-2.15,1.04-4.36,2.1-8.72,2.85-13.13.21-1.26-.28-2.96-1.06-4-3.64-4.88-7.54-9.57-11.26-14.4-2.84-3.69-5.4-7.61-8.32-11.23-6.15-7.65-12.5-15.14-18.7-22.75-7.02-8.62-14-17.28-20.94-25.96-3.46-4.34-8.07-8.31-9.87-13.28-2.06-5.7-5.46-9.79-9.32-13.99-1.28-1.39-1.95-3.59-2.31-5.53-.67-3.58.33-6.44,3.73-8.64,5-3.23,6.46-9.02,9.26-13.89,3.37-5.86,7.89-11.06,11.92-16.55,5.19-7.07,10.29-14.2,15.57-21.19,8.72-11.55,17.7-22.9,26.2-34.61,1.61-2.22,1.5-5.7,2.19-8.6-2.6-.59-5.18-1.52-7.81-1.69-7.74-.52-15.49-.78-23.24-1.04-2.81-.09-5.63.11-8.44.22-3.75.14-7.5.35-11.26.45-4.25.11-8.65-.34-11.81,3.44-4.49,5.38-8.7,11.03-13.49,16.12-5.55,5.89-10.85,11.76-12.09,20.18-.13.87-.79,1.74-1.38,2.47-5.54,6.83-11.12,13.62-17.05,20.88-2.74-.81-4.63-3.17-4.38-7.16.34-5.42,1.09-10.85.92-16.25-.39-12-1.07-24-2.12-35.95-.14-1.6-3.05-4.16-4.74-4.21-11.65-.37-23.32-.18-34.98-.2-9.03-.01-13.14,5.61-13.11,13.64.09,24.32.12,48.65-.09,72.97-.03,2.88-1.43,5.87-2.7,8.58-1.14,2.43-2.97,4.53-4.59,6.9,3.39,3.79,9.21,5.18,9.15,11.25-.03,3.28.17,6.57.25,9.86.34,12.89.78,25.78.97,38.67.16,10.97.11,21.94-.03,32.91-.05,4.06-.93,8.12-.85,12.16.09,4.83-3.1,10.63,3.87,13.93,1.57-1.33,3.42-2.88,4.13-3.48-1.17-5.48-2.91-9.93-2.95-14.39-.25-27.82-.2-55.64-.01-83.46.02-2.49,1.06-6.32,2.73-7.08,1.76-.79,5.39.74,7.27,2.34,9.18,7.84,16.22,18.16,27.57,23.53,1.09.51,2.09,2.25,2.24,3.53.84,7.29,1.58,14.6,1.97,21.93.17,3.18-.89,6.42-.83,9.62.13,7.4.96,14.8.83,22.19-.12,6.8,1.94,14.22-4.41,19.91-.53.47,1.93,6.17,2.93,6.14,4-.08,5.17,2.99,5.35,5.11.86,10.07,8.28,12.94,16,15.62q.56,9.04,8.97,8.31c.1,0,.23.22.27,1.1-.31,7.29-7.47,4.05-10.55,7.49-1.99-5.19-4.34-8.55-10.1-9.86-4.7-1.08-8.6-5.3-13.17-7.5-1.63-.79-4.9-.5-6.11.67-2.43,2.33-1.31,4.55,1.86,5.92,2.47,1.06,5.11,2.23,6.99,4.06,4.24,4.12,8.84,6.36,14.87,5.22,1.04-.2,2.64.23,3.33.98,5.85,6.31,14.48,7.89,21.63,11.64,6.33,3.33,7.65,8.75,11.1,13.2,2.95,3.8,4.39,8.74,7.14,12.74,2.07,3.01,4.97,5.51,7.81,7.89,4.92,4.13,9.04,8.86,13.12,13.83,4.04,4.93,6.24,10.28,6.9,16.15.68,6.11-1.94,11.36-6.84,15.44-1.38,1.14-2.72,3.18-2.81,4.87-.5,8.98-.49,18-.92,26.99-.07,1.52-1.28,3.07-2.21,4.45-1.22,1.81-2.94,3.32-3.89,5.23-.39.79.35,2.75,1.18,3.33.63.45,2.5-.08,3.29-.77,1.44-1.27,2.18-3.53,3.76-4.39,3.29-1.79,6.92-3.94,10.43-3.96,2.05-.01,4.73,3.46,6.07,5.93,3.39,6.25,6.26,12.79,9.21,19.27,3.7,8.13,7.49,16.23,10.78,24.52,1.23,3.08.99,6.71,1.75,10.02,1.33,5.78,2.85,11.51,4.4,17.24,1.73,6.4,3.57,12.77,5.6,19.99-1.27.65-3.15,2.31-5.17,2.52-4.44.45-8.95.03-13.43.19-5.09.18-10.17.88-15.25.89-30.99.09-61.99.07-92.98,0-2.9,0-5.89-.29-8.66-1.09-1.57-.45-2.76-2.22-4.12-3.39,1.19-1.22,2.2-2.72,3.6-3.61,2.67-1.7,5.6-2.99,8.34-4.58,1.7-.98,3.21-2.28,4.91-3.27,1.64-.95,3.7-1.35,5.06-2.57,3.54-3.17,6.81-6.65,10.17-10.02,3.94-3.94,8.65-7.4,11.61-11.98,3.65-5.66,9.02-6.17,14.48-7.55,2.4-.61,5.24-1.65,6.66-3.45,2.29-2.92,3.66-6.59,5.24-10.02,1.12-2.42,1.83-5.03,2.95-7.45,1.53-3.32-.41-8.74,5.7-9.43.53-.06,1.07-1.86,1.23-2.9.28-1.83.26-3.69.37-5.64-.67,0-1.34-.07-1.99.03-.43.06-1,.25-1.2.58-3.41,5.57-8.51,7.44-14.83,7.59-1.46.04-3.89,2.52-4.12,4.13-.96,6.74-4.6,11.76-9.27,16.2-4.34,4.12-10.76,5.98-13.22,12.18-.17.42-.67.72-1.05,1.03-4.71,3.76-9.5,7.43-14.13,11.3-2.19,1.83-4.47,3.78-6,6.14-2.58,3.97-8.75,4.36-9.59,9.94-.06.38-.91.73-1.46.95-6.82,2.66-13.75,5.07-20.43,8.04-2.63,1.17-4.74,3.53-7.02,5.44-.8.67-1.32,1.66-2.06,2.42-1.61,1.64-3.56,3.03-4.86,4.88-1.82,2.58-3.03,5.59-4.77,8.23-2.48,3.76-2.66,8.75.82,11.62,1.22,1.01,2.49,2.54,2.76,4,.95,5.22,2.08,10.15,6.75,13.54.84.61,1.27,2.26,1.29,3.44.11,7.66.38,15.35-.13,22.98-.17,2.51-1.95,5.54-3.95,7.11-1.87,1.47-5,1.31-8.13,1.99,1.59-4.73-1.3-7.16-4.91-7.31-9.77-.39-20.08-2.6-28.31,5.45-.54.52-1.51.59-2.07,1.1-1.86,1.72-3.76,3.43-5.38,5.37-.87,1.04-1.32,2.49-1.74,3.83-1.49,4.83-4.09,9.7-4.03,14.53.09,7.72,4.22,14.58,7.75,21.38.36.69.95,1.53,1.63,1.76,3.15,1.09,3.22,3.48,3.4,6.29.84,13.06,1.87,26.11,2.96,39.15.31,3.74-4,9.71-7.23,10.36,2.04,5.22,5,10.41,5.97,15.96,1.05,5.97.43,12.28.14,18.43-.11,2.44-.55,5.61-2.12,7.09-4.48,4.22-5.76,9.42-6.54,15.09-1.33,9.64-2.79,19.26-4.26,28.88-.56,3.66-.77,7.52-2.13,10.88-1.61,3.97-4.29,7.5-6.36,10.96.19.05,1.86,1.07,2.93.64,6.86-2.77,9.77,2.62,12.86,6.51,1.57,1.98,2.2,5.68,1.58,8.2-.81,3.27-3.12,6.24-5.06,9.15-2.19,3.29-4.08,7.35-7.2,9.32-3.72,2.34-8.54,3.36-13.02,3.92-3.53.44-7.88,3.93-10.91-1.36-.27-.46-1.54-.5-2.34-.48-8.44.19-16.89.25-25.32.77-2,.12-3.38,1.48-2.67,4.6.54,2.39-.59,5.71-4.66,5.83-5.75.17-11.51.5-17.24,1.04-1.52.14-2.95,1.29-4.42,1.97,1.25,1.29,2.36,3.48,3.78,3.71,7.77,1.26,15.37,3.25,23.54.75,7.94-2.43,15.84-6.25,24.65-4.57.7.13,1.53-.58,2.31-.62,3.45-.17,6.98-.72,10.34-.23,7.77,1.15,14.84-.34,21.76-3.91,4.64-2.4,9.45-5.05,14.47-5.98,7.85-1.45,15.97-1.43,23.95-2.25,5.31-.55,10.63-1.22,15.84-2.32,7.54-1.58,14.32-5.08,21.32-8.31,8.58-3.96,18.28-5.43,27.32-8.48,5.22-1.76,10.12-4.49,15.15-6.81.58-.27,1.05-.77,1.63-1.02,8.44-3.73,17.41-6.6,25.16-11.42,6.38-3.96,14.31-5.72,19.04-12.29.98-1.36,2.25-2.55,3.49-3.7,1.73-1.59,3.62-4.42,5.35-4.35,4.77.19,9.5,1.6,15.4,2.76.64-2.73,1.41-6.72,2.53-10.6.55-1.91,1.51-4.95,2.73-5.19,4.6-.91,6.26-3.57,6.34-7.29,3.12-1.56,5.91-3.05,8.77-4.36,5.42-2.49,7.92-6.29,5.82-11.69-1.61-4.16.74-5.59,2.74-7.9,3.23-3.73,7.83-7.21,9.02-11.57,2.42-8.83,11.56-14.23,11.44-24.04,0-.45.28-.95.54-1.35,3.86-5.87,8.3-11.46,11.45-17.69,2.66-5.26,5.28-10.6,7.67-15.96,3.03-6.81,4.53-14.33,6.37-21.63,2.83-11.18,5.03-22.53,8.14-33.62,4.26-15.18,7.77-30.42,7.88-46.27.06-8.33.15-16.67-.04-24.99-.13-5.75-.51-11.51-1.14-17.22-1.12-10.17-2.29-20.34-3.9-30.44-1.03-6.47-2.65-12.87-4.49-19.16-.91-3.14-3.38-5.82-4.31-8.96-2.44-8.27-4.39-16.68-6.61-25.01-.77-2.9-1.6-5.81-2.73-8.58-1.03-2.53-2.68-4.8-3.73-7.32-.91-2.19-1.11-4.68-2.07-6.85-2.19-4.94-4.7-9.74-6.99-14.65-1.07-2.3-1.95-4.69-2.87-7.06-4.48-11.46-17.12-16.77-21.38-28.4-.1-.28-.47-.45-.71-.69-6.36-6.19-12.72-12.38-19.07-18.57-.31-.31-.78-.57-.9-.95-1.93-6.23-6.9-9.62-11.91-13.06-3.63-2.49-8.1-4.6-10.36-8.08-4.07-6.26-10.5-8.55-16.32-11.88-3.4-1.95-7.55-2.59-9.56-6.58-.32-.64-1.24-1.3-1.94-1.37-6.34-.64-8.4-5.98-11.64-10.17-3.41-4.42-7.2-8.56-10.95-12.71-.36-.4-1.58-.04-3.05-.69-.33-1.9-.02-4.4-1.12-5.58-3.53-3.8-8.64-5.9-10.57-11.51-1.53-4.42-.81-7.2,3.66-8.46,1.67-.47,3.26-1.21,4.89-1.83-5.29-.61-9.93-.45-14.17-4.84-2.6-2.69-2.92-4.98-3.78-8.12-1.25-4.56-2.38-8.61-.71-13.27.75-2.08.42-4.57.44-6.88.05-4.99.17-10-.05-14.98-.12-2.67-.92-5.3-1.33-7.97-.19-1.24-.49-2.58-.21-3.75,1.02-4.23,11.24-8.35,15.02-6.13.35.2.69.77.69,1.16-.1,5.04,1.06,9.27,6.58,10.93.18.05.16.62.34.87,1.85,2.59,3.9,5.06,5.55,7.78,1.65,2.73,3.72,5.59,4.13,8.6.53,3.95-.38,8.1-.67,12.17-.39,5.36.25,10.98-5.49,14.53-1.25.77-1.26,3.52-1.96,5.73,5.11,0,9.26,0,14.1.6M510.2,369.86c-.85.93-1.71,1.87-3.14,3.43,1.95.31,3.16.58,4.38.7,3.73.36,7.46.97,11.19.93,7.67-.08,15.07-2.55,17.54-11.78,1.7-6.35-.59-11.37-3.79-15.39-4.77-5.99-2.94-12.31-2.68-18.41.3-7.34-.56-8.74-7.16-9.7.75-6.85-6.63-14.49,3.15-21.75,1.31,6.25,2.43,11.58,3.79,18.02,1.41-2.66,2.54-4.08,2.96-5.7,2.55-9.74-2.69-18.46-3.8-27.73-.2-1.68-.03-3.41-.03-5.45.84.05.12-.18-.47,0-6.01,1.78-7.61.54-7.64-6.09-.03-5.83,0-11.67,0-17.5,0-7.94-.02-7.81,7.82-6.61,1.27.19,3.24-1.05,4.07-2.21.54-.76-.02-2.83-.75-3.85-1.27-1.77-3.07-3.14-4.59-4.74-2-2.1-3.94-4.26-6.83-7.4-1.53-6.83,6.09-11.7,13.94-12.75,5.92-.79,12.25.32,17.33-5,3.64-3.8,11.87-.28,12.91,5.04.69,3.51.93,7.13,1.06,10.72.17,4.83-.02,9.66.05,14.49.31,19.24.83,38.48.92,57.72.05,10.63-.27,21.29-1.07,31.88-.4,5.32,3.75,8.51,9.52,7.09,3.04-.75,6.02-1.71,9.01-2.57-1.26-.65-2.71-1.69-4.33-2.19-5.82-1.81-8.05-4.57-8.06-10.42-.01-7.28,0-14.56,0-21.84,0-18.33-.04-36.67.03-55,.01-4.21.4-8.43.55-12.64.15-4.19-.36-8.49.44-12.55,1.05-5.32,3.99-10.31,1.02-15.94-3.15-5.97-3.14-12.51-3.08-19.09.13-15.82.04-31.64.04-47.46,0-10.48.1-20.97-.05-31.45-.07-4.75-1.25-9.56-.82-14.24.89-9.78.48-13.43,13.62-13.44,13.81-.01,27.63,0,41.44,0h80.76c21.67,0,43.33,0,65,0,4.72,0,6.84-2.02,7.04-6.72.08-1.83-.03-3.67.02-5.5.32-13.09.68-26.17.98-39.26.09-3.8-.99-7.62-4.98-8.3-4.64-.79-9.52-.34-14.29-.19-6.59.21-13.17.96-19.76.91-21.59-.17-43.17-.63-64.76-.93-5.97-.08-11.95-.14-17.92.02-5.76.16-11.5.76-17.26.9-2.4.06-4.82-.92-7.22-.88-9.58.19-19.14.75-28.72.87-4.25.05-8.5-.88-12.75-.86-4.92.02-9.84.86-14.76.88-20.51.11-41.02.05-61.53.05-16.5,0-33,.13-49.49-.04-14.92-.15-29.84-.76-44.76-.9-5.92-.06-11.84.86-17.76.86-5.75,0-11.5-.84-17.26-.88-16.83-.13-33.67.1-50.5-.13-5-.07-10.02-.95-14.96-1.89-6.66-1.27-11.45,2.27-11.29,9.01.2,8.56.73,17.1.94,25.66.16,6.66-.2,13.35.18,19.99.1,1.82,1.71,4.66,3.19,5.09,4.32,1.27,8.92,2.11,13.41,2.14,32.5.17,65,.1,97.5.08,5.13,0,10.26-.24,15.38-.11,10.41.27,20.8.99,31.21,1.02,10.24.03,20.49-.84,30.73-.81,6.88.02,10.34,2.71,10.42,6.98.36,18.42.79,36.84.95,55.26.06,6.58-.7,13.17-.91,19.76-.15,4.8,0,9.61-.05,14.42-.02,1.84-.47,3.69-.38,5.52.41,8.86.96,17.71,1.36,26.57.05,1.05-.36,2.27-.94,3.16-.97,1.51-2.25,2.83-3.4,4.23-.88-1.33-2.46-2.62-2.54-4-.63-11.05-1.17-22.12-1.35-33.19-.16-9.69.33-19.4.16-29.09-.04-2.25-1.13-4.79-2.49-6.65-1.88-2.57-4.34-4.77-6.81-6.82-.97-.81-2.65-1.02-3.99-.99-.51,0-1.56,1.57-1.41,2.19.93,3.86,2.13,7.66,3.25,11.48,1.19,4.1,2.77,8.14,3.47,12.32.78,4.66,1.1,9.46.97,14.19-.08,2.79-1.29,5.6-2.35,8.26-.13.33-3.1.28-3.67-.45-2.1-2.68-3.75-5.72-5.81-9.02-4.69,8.05-12.41,9.89-18.95,8.25-5.82-1.47-12.55-2.81-17.32-8.5-4.98-5.94-2.68-12.72-4.11-19.04-1.84,0-3.38-.24-4.82.06-2.11.43-4.65.71-6.03,2.05-1.03,1.01-1.15,3.83-.56,5.44,2.28,6.26.34,12.16-5.13,16.04-2.74,1.94-4.85,4.76-7.32,7.1-.66.63-1.62.97-2.47,1.38-2.41,1.16-4.89,2.17-7.23,3.46-2.68,1.47-5.05,3.77-7.88,4.61-3.2.94-6.87,1.23-10.12.65-1.38-.25-2.26-3.42-3.3-5.3-1.22-2.22-2.37-4.48-3.9-7.4-4.18,12.88-7.35,12.34-16.78,11.97-.87-.03-1.94.26-2.57-.14-2.25-1.43-6.07-2.95-6.23-4.7-.68-7.77-.28-15.64-.3-23.47-.01-5.09,4.26-6.71,7.64-8.23,1.74-.78,5.27.54,6.99,2.05,2.11,1.86,3.18,4.9,4.39,6.91,2.95-1.46,6.13-2.17,7.91-4.14,2.27-2.52,3.76-5.95,4.85-9.23.35-1.06-1.94-2.8-2.43-4.4-.51-1.66-.73-3.65-.31-5.3.65-2.55,1.55-5.23,3.07-7.33,3.02-4.18,6.43-8.1,9.88-11.93,1.35-1.49,3.26-2.47,4.91-3.7,1.07-.79,2.06-2.19,3.19-2.31,7.62-.84,15.27-1.3,22.9-2.09,6.97-.72,13.92-1.68,22.4-2.72,6.82,14.99,6.86,30.78-2.31,46.74,2.14-.45,3.53-1.47,5.09-1.93,6.3-1.82,8.67-5.32,7.85-11.56-.49-3.73-.9-7.49-.97-11.24-.08-4.97.15-9.95.37-14.92.19-4.32,4.41-6.45,7.73-3.5,4.03,3.58,10.48,5.14,10.93,12.09.05.8,1.31,1.52,2.01,2.27.43-.18.86-.37,1.29-.55-.78-3.15-1.52-6.32-2.42-9.45-.13-.44-1.14-.98-1.62-.89-3.69.73-4.39-1.34-4.36-4.33.01-1.29.16-2.86-.48-3.82-1.54-2.31-3.43-4.4-5.33-6.44-.72-.78-1.81-1.51-2.82-1.67-3.22-.51-6.49-.64-9.72-1.1-2.98-.42-6.64-.18-8.72-1.84-2.98-2.38-4.5-3.27-5.6.42-1.48-.53-3.51-1.53-3.67-1.29-2.94,4.47-7.46,2.02-11.21,2.81-1.81.38-3.57,1.27-5.19,2.2-3.18,1.81-6.07,5-9.39,5.5-7.47,1.1-15.13,1.19-22.72,1.17-9.25-.03-18.5-.7-27.76-.89-7.5-.16-15,.09-22.5-.06-8.57-.17-17.14-.83-25.7-.74-2.73.03-5.65,1.46-8.04,2.96-.98.61-1.01,3.08-1.1,4.73-.42,7.74-1.11,15.5-.93,23.24.21,9.18,1.29,18.34,1.87,27.51.44,7.08,1.04,14.18.89,21.25-.13,6.18-1.93,12.36-1.73,18.51.64,19.93,1.95,39.85,2.83,59.77.52,11.71.77,23.43,1.01,35.14.14,7.16.06,14.33.02,21.5-.02,3.77,1.84,5.98,5.51,6.12,11.92.45,23.86.84,35.79.98,4.75.06,9.5-.82,14.26-.89,7.99-.12,15.98.03,23.97.17.83.02,2.05.59,2.39,1.26,1.9,3.71,3.58,7.53,5.58,11.83.72-.64,1.75-1.32,2.44-2.25.55-.73.74-1.75,1.03-2.67,2.54-8.17,9.13-8.15,14.57-4.16,10.04,7.37,9.8,7.69,16.52-2.44.41-.61,1.12-1.53,1.63-1.49,3.4.25,7.95-.49,9.93,1.4,3.26,3.11,8.2,6.85,4.48,12.95-.89,1.45-1.31,3.19-2.11,5.21,3.96.38,7.82.64,11.64,1.16,5.12.7,10.21,2.14,15.33,2.22,3.21.06,7.21,1.46,9.81-2.41,1.45-2.15,3.12-4.64,5.31-5.67,2.96-1.39,6.52-1.47,9.8-2.19,2.41-.53,4.79-1.17,7.39-1.82,3.74,2.21,8.01,4.73,11.83,7-5.36,10.35-15.18,2.96-22.34,7.52,1.52.9,2.64,1.96,3.94,2.26,4.99,1.15,10.07,1.96,15.06,3.14,1.16.27,2.08,1.53,3.11,2.33-.98.86-1.83,2.19-2.96,2.51-3.51.99-7.12,1.59-11.2,2.94M538.5,614.5c-.33-7.24.1-14.62-1.24-21.66-1.14-5.99-5.01-11.43-6.37-17.42-1.11-4.9-1.54-9.54-6.51-12.24-.66-.36-.94-2.08-.82-3.1.58-5.14,1.11-10.31,2.11-15.38,1.19-6.06,1.83-11.94-1.39-17.19h-8.59c-1.02-2.4-1.41-6.43-6.62-3.66,1.14,4.39,2.38,8.85,3.4,13.37.25,1.11-.25,2.39-.41,3.6-.85-.73-1.64-1.56-2.57-2.18-1.23-.83-2.53-1.6-3.88-2.23-1-.46-2.38-.35-3.14-1.01-5.86-5.08-11.68-10.21-17.35-15.5-1.34-1.25-1.71-3.57-3.1-4.72-3.13-2.58-6.66-4.67-9.92-7.1-1.34-1-2.41-2.37-3.6-3.57-.83-.83-1.6-2.31-2.5-2.39-5.03-.5-3.37-5-4.22-7.55-.64-1.92.68-4.87,3.88-5.62,2.08-.49,4.02-1.6,6.02-2.43.02-.64.04-1.28.05-1.93-2.38-.38-4.74-1.02-7.13-1.08-3.44-.09-6.96.71-10.33.27-5.06-.66-7.52.48-6.57,5.46,1.64,8.59-5.12,10.71-9.8,14.45-.67.54-3.84-.44-4.08-1.25-1.4-4.58-2.26-9.32-3.3-14-.47-2.12-.91-4.25-1.45-6.35-1.15-4.48-2.78-8.89-3.32-13.43-.17-1.44,2.47-3.22,4.02-5.07-3.62-1.47-7.89-2.01-10.12-4.44-2.39-2.6-2.89-6.96-4.16-10.57-.36-1.02-1.1-2.39-.72-3.1,2.22-4.18-.09-6.39-3.2-8.49-3.85-2.6-8.55-4.57-8.29-10.5.02-.48-.85-.96-1.22-1.5-4.04-5.82-7.04-12.08-9.94-18.6-3.25-7.31-4.43-12,1.97-18.4,3.04-3.04,5.12-6.21,9.59-7.05,1.17-.22,3.18-1.42,3.11-1.94-.34-2.59-1.83-1.83-3.86-1.29-8.05,2.15-11.84-1.88-9.81-9.94.32-1.25-.06-2.76.47-3.86.71-1.46,1.77-3.35,3.1-3.79,5.42-1.79,2.67-7.06,4.6-10.31.33-.55-1.87-2.6-3.7-5.02-1.61,4.33-2.02,8.05-4.04,10.35-6.1,6.94-7.04,15.08-7.06,23.66-.02,7.75-2.08,10.65-9.09,13.2-1.48.54-3.11,1.08-4.24,2.1-6.45,5.87-12.91,11.72-19.08,17.88-6.76,6.75-13.49,13.57-19.71,20.81-5.79,6.74-10.82,14.14-16.32,21.14-5.76,7.34-11.9,14.4-14.75,23.58-.79,2.56-1.99,5.03-3.28,7.38-3,5.48-3.89,12.35-10.3,15.67-.74.38-.91,1.99-1.21,3.06-2.5,8.78-4.9,17.58-7.48,26.33-2.97,10.1-6.15,20.14-9.12,30.24-.67,2.3-.19,5.14-1.36,7.05-3.62,5.9-3.58,12.57-3.88,18.89-.84,18.06-1.03,36.16-1.11,54.25-.05,10.92,1.04,21.85.8,32.75-.2,9.26,1.1,18.12,3.64,26.96,1.2,4.17,2.31,8.54,2.34,12.83.05,5.97,1.5,11.15,5.08,15.89,1.02,1.36,1.32,3.24,2.1,4.82,3.85,7.85,7.66,15.72,11.65,23.49,2.03,3.95,4.39,7.72,6.61,11.57,3.68,6.38,7.45,12.72,11.03,19.15,2.77,4.97,4.99,10.13,3.59,15.26-3.1,1.06-5.47,1.87-7.84,2.67,3.02,1.04,6.13,1.94,8.24.87,5.4-2.75,10.32-6.44,15.52-9.6,1.58-.96,3.45-1.48,5.24-2.08,4.7-1.58,9.46-2.99,14.13-4.64,7.91-2.79,15.38-6.19,22.6-10.81,5.25-3.35,12.17-4.35,17.44-8.53,5.55-4.41,13.77-5.67,16.17-13.81.17-.56.86-1,1.36-1.44,5.46-4.82,11.35-9.23,16.28-14.53,5.94-6.38,10.29-14.01,16.61-20.32,3.95-3.94,7.27-7.07,12.74-8.26,1.48-.32,3.19-3.02,3.47-4.83.82-5.37,1.31-10.33,7.01-13.46,3.23-1.77,5.47-5.36,8.11-8.17,1.93-2.06,3.54-4.51,5.73-6.22,4.51-3.5,11.92-2.39,12.61,2.1.6,3.92-.19,8.39-1.58,12.17-1.53,4.18-4.13,8.09-6.86,11.66-2.1,2.74-4.8,5.47-7.84,6.91-2.92,1.38-6.62,1.08-9.96,1.51.39,6.69.36,6.67-4.03,12.51-.76,1.01-1.01,2.41-1.78,3.41-1.73,2.22-3.67,4.28-5.47,6.45-1.04,1.25-2.05,2.55-2.97,3.89-2.18,3.16-4.22,6.43-6.47,9.54-2.02,2.79-4.69,5.2-6.3,8.18-4.95,9.19-9.94,18.41-10.18,29.32-.04,1.81-1.34,4.66-2.74,5.17-3.83,1.39-3.94,4.71-5.09,7.52-1.14,2.78-2.38,5.61-2.91,8.54-.49,2.71-1.18,6.3.12,8.21,2.45,3.6,2.9,7.16,2.76,11.15-.08,2.5-.57,5.16.09,7.47,3.66,12.72.95,25.53.73,38.28-.03,1.68-1.93,4.1-3.54,4.75-1.6.65-4.58.21-5.82-.96-5.42-5.12-5.82-11.63-2.24-18.56,2.21-4.28,3.67-8.46,1.11-13.69-3.47-7.07-5.93-14.66-5.51-22.89.07-1.48-1.76-3.16-2.94-4.56-1.05-1.24-2.53-2.12-3.6-3.35-3.45-3.97-6.68-8.14-10.26-11.99-.94-1.02-2.83-1.58-4.29-1.62-6.94-.16-13.94-.58-20.82.07-6.54.62-12.99,2.32-19.42,3.78-5.18,1.18-10.33,2.56-15.4,4.16-2.27.72-4.31,2.17-6.46,3.3.1.62.2,1.24.3,1.86,1.92.25,3.92.24,5.75.8,4.99,1.55,10.19,2.83,14.72,5.3,1.71.93,1.67,4.89,2.66,7.38.46,1.15,1.35,2.23,2.27,3.09,6.81,6.37,13.41,12.8,18.92,20.51,3.14,4.39,8.34,9.16,13.27,10.03,10.56,1.87,14.81,10.25,21.71,16.23,2.25.56,6.91.77,7.18,1.96,1.34,5.93,5.7,3.91,9.17,4.48,3.31.54,6.75.87,9.83,2.06,3.83,1.48,7.31,3.84,11.02,5.67,5.58,2.75,11.35,5.15,16.79,8.14,2.05,1.13,3.4,3.51,5.76,6.06-6.93,1.71-11.93,3.77-12,10.93-.04,3.59,3.96,11.41,7.23,12.74,8.29,3.36,16.5,1.64,24.78-.06-.7-3.63-2.57-4.73-5.97-4.67-4.57.08-9.16-.49-13.72-.92-3.49-.33-4.29-2.3-3.4-5.58,2.03-7.54,7.85-9.84,14.58-11.5,3.42-.84,8.15.04,9.49-4.84,1.17-4.29,2.29-8.37,6.83-10.55,1.07-.51,2-2.35,2.11-3.65.51-6.19,4.88-7.62,9.85-8.94,4.69-1.25,9.6-2.04,10.8-8.64.77-4.23,3.84-7.88,9.08-8.31,3.73-.3,7.44-.85,11.89-1.38.49-5.75,1.2-11.55,1.43-17.37.25-6.49.14-13,.04-19.5-.13-8.04,1.19-15.4,4.62-23.07,3.04-6.79,2.65-15.2,3.31-22.94.37-4.28,1.14-7.47,6.22-7.79,1.34-.08,2.64-.9,3.2-1.1-.37-6.55-.89-12.51-.98-18.48-.11-7.05.81-14.18.1-21.15-.76-7.48-3.06-14.78-4.38-22.22-.69-3.85-1.65-8.01-.88-11.69,2.78-13.21,6.2-26.29,9.49-39.4,1.07-4.27-.85-9.58-4.64-11.66-1.3-.71-3.12-.76-4.09-1.72-2.85-2.84-4.38-6.17-4.05-10.51.42-5.47.1-10.99.1-17.49M550.53,579.75c-3.47,8.57-4.3,17.17-.75,26.66.97-8.26,1.78-15.68,2.78-23.08.2-1.48,1.19-4.12,1.76-4.1,7.81.21,5.68-5.91,6.05-9.81.55-5.91.08-11.9.35-17.85.05-1.17,1.29-2.76,2.39-3.26.83-.38,2.74.32,3.41,1.15,1.28,1.58,2.71,3.54,2.86,5.44.47,6.22,4.53,9.56,9.15,12.53.85.55,2.65.88,3.23.38,5.08-4.34,9.98-8.89,14.93-13.38.24-.22.65-.61.59-.76-1.37-3.41,1.48-3.61,3.39-4.75,1.9-1.14,6.05-.52,4.36-4.91,1.03-.37,2.06-1.07,3.08-1.06,3.16.01,5.81-.2,6.57-4.2.21-1.08,2.1-1.82,3.19-2.75,1.56-1.33,3.19-2.61,4.58-4.1.84-.9,1.07-2.38,1.95-3.21,3.35-3.21,6.89-6.24,10.27-9.42.79-.74,1.19-1.87,1.85-2.76,1.05-1.43,2.03-2.96,3.31-4.16,1-.94,2.82-1.14,3.59-2.17,4.13-5.54,7.64-11.28,14.5-14.51,3.75-1.77,6.94-5.99,8.91-9.85,1.44-2.82,3.24-3.5,5.59-4.26,2.59-.84,5.13-1.95,7.79-2.35,1.13-.17,2.85.84,3.68,1.83,1.78,2.14,2.7,6.06,4.77,6.7,8.93,2.76,10.33,10,11.89,17.46.64,3.05,1.56,6.04,2.35,9.06.88-.12,1.75-.25,2.63-.37,0-5.53,0-11.05,0-16.58,0-10.07-6.19-15.81-16.25-15.07-1.45-5.05-8.61-7.96-5.23-14.69,1.65-.65,4.18-.89,5.26-2.26,1.14-1.44.9-3.97,1.27-6.13,4.79-.22,13.02-6.23,14.48-11.29,1.12-3.88,2.63-6.97,5.97-7.03-1.08-2.06-2.16-4.45-3.55-6.65-1.17-1.84-2.36-4.35-4.13-5.01-8.38-3.14-16.6-6.55-25.69-7.85-6.94-.99-13.54-4.47-20.26-6.96-2.48-.92-4.9-2.06-7.25-3.29-1.58-.83-2.95-2.81-4.46-2.86-9.01-.27-18.02-.14-28.11-.14,1.3,1.49,1.69,2.36,2.32,2.61,6.04,2.41,12.31,3.28,18.68,1.75,3.86-.92,6.35-.24,8.09,3.72.73,1.66,2.97,3.11,4.83,3.72,2.58.84,5.51.55,8.16,1.23,1.41.36,2.85,1.54,3.7,2.75.39.55-.34,2.76-1.05,3.06-7.24,3.08-11.97,11.38-21.3,10.2-1.2-.15-2.7.97-3.85,1.8-5.75,4.15-12.44,5.63-19.16,7.18-.96.22-1.65,1.6-2.46,2.45.97.68,1.86,1.58,2.93,1.97,1.14.41,2.49.61,3.68.44,4.43-.65,8.96-1.06,13.19-2.38,4.31-1.35,8.3-3.71,12.46-5.56,2.33-1.03,6-1.3,6.84-3.01,1.93-3.93,5.09-3.46,8.21-4.04,2.03-.38,4-1.12,6-1.69,8.05-2.32,15.32,1.77,22.96,2.85.29.04.46.74.74,1.09,1.45,1.83,1.61,10.88.02,13.15-3.43,4.91-6.92,9.78-10.61,14.49-.54.69-2.59,1.02-3.4.56-4.67-2.63-9.47-3.8-14.92-3.56-3.79.17-7.65-1.02-11.47-1.69-3.18-.56-7.98,2.67-8.4,5.8-1.95,0-4.35-.73-5.78.13-4.7,2.86-9.11,6.23-13.49,9.58-.71.54-.57,2.09-1.03,3.08-1.38,3.02-2.1,7.02-4.46,8.75-3.84,2.81-6.47,6.79-11.04,9.08-5.02,2.52-5.93,10.58-13.01,11.57-.56.08-.9,1.31-1.48,1.86-.76.73-1.71,1.94-2.48,1.87-5.9-.51-8.03,3.51-9.87,7.98-4.55-4.46-6.37-11.76-5.46-17.52.81-5.18.59-10.51.86-15.78.21-4.24-.87-9.26,1.04-12.53,2.46-4.22,4.52-10.82,12.15-9.26.81.17,2.04-1.74,3.08-2.68-.04-.54-.09-1.08-.13-1.62-2.49-.46-5.32-1.88-7.39-1.15-3.12,1.11-4.96.77-7.62-1.14-3.4-2.44-2.15-4.88-1.38-7.69.56-2.02,1.19-4.12,1.15-6.17-.17-8.4-.67-16.8-.9-25.2-.19-7.17.28-14.4,5.97-19.55,1.92-1.74,5.35-2.09,8.16-2.38.83-.08,1.84,2.29,2.88,3.43.79.87,1.7,2.18,2.66,2.27,7.36.73,14.74,1.22,22.11,1.78.14-.69.29-1.38.43-2.07-1.01-.54-2.05-1.03-3.03-1.63-6.2-3.77-15.11-.19-20.06-7.37-.17-.25-.54-.46-.84-.51-4.63-.72-9.27-1.96-13.91-1.99-6.51-.04-11.33,4.04-11.34,9.25-.06,18.13-.19,36.28.32,54.4.27,9.56-4.34,14.39-13.82,13.27-5.32-.63-10.73-.56-16.1-.81.55,2.13,1.25,3.13,2.21,3.6,6.03,2.92,12.4,1.63,18.57.93,5.48-.62,8.88,1.59,8.73,7.1-.2,7.25-1.52,14.6-.75,21.73,1.27,11.71,2.01,23.18-3.55,33.96-2.11,4.09-1.13,10.28-7.44,11.85-.58.14-1.06,1.58-1.19,2.47-1.07,7.51-1.91,15.06-3.11,22.55-.37,2.28-1.63,4.41-2.89,7.32M483.81,399c-2.16,0-4.45-.44-6.47.1-3.03.82-7.51,1.62-8.44,3.72-1.81,4.1-4.62,3.52-7.72,4.33-4.19,1.1-10.46-1.76-11.97,5.41-.04.18-.53.38-.82.39-8.9.29-11.91,11.22-20.85,11.61-.66.03-1.24,1.95-2.11,3.43,4.77.28,9.29.26,11.77-3.7,1.5-2.39,2.74-3.11,5.4-3.52,3.38-.52,8.17-1.35,9.46-3.66,1.83-3.28,3.78-3.71,6.77-4.2,4.25-.69,9.17-.87,12.44-3.18,4.32-3.06,8.72-3.35,13.43-3.75,2.11-.18,4.19-.61,6.3-.75,6.89-.45,13.78-1.02,20.68-1.15,3.34-.06,7.9,4.57,7.78,7.02-.68,12.97-1.34,25.93-1.95,38.9-.16,3.46.58,7.13-.35,10.34-.98,3.36.75,4.34,2.82,5.44,2.34,1.24,4.82,2.2,7.54,3.41,1.82-1.23,4.35-2.94,7.09-4.8-.94-.65-1.46-1.04-2-1.38-7.8-5-11.53-11.78-10.02-18.24,1.75-7.5.88-14.96.12-22.52-.63-6.27-1.5-12.95,3.9-18.36-.5-.59-1.11-1.14-1.5-1.81-3.88-6.75-9.4-9.38-17.07-7.1-3.81,1.13-7.65,2.28-11.56,2.96-3.86.66-7.82.74-12.67,1.07M887.47,491.17c-.32-6.4-.66-12.79-.97-19.19-.22-4.75-.64-9.33-4.37-12.99-1.02-1-1.2-2.91-1.62-4.44-1.83-6.59-.02-15.1-9.43-17.67-.28-.08-.28-.95-.6-1.19-1.23-.95-2.44-2.07-3.85-2.61-1.91-.74-3.99-1.3-6.03-1.44-3.12-.22-7.06-3.63-9.61,2.83,5.71.25,10.88.48,16.43.72-1.72,4.86-.72,7.48,3.51,8.95,1.16.4,2.57,2.62,2.42,3.82-.69,5.51-1.9,10.96-3.04,17.07,4.63,1.14,3.06,10.88,11.93,9.68-.59,6.06-1.47,11.92-1.62,17.79-.09,3.62-1.86,5.05-4.71,4.34-2.88-.73-5.16-2.74-4.16-6.55,1.8-6.83.62-8.04-6.24-6.68,0,.65-.18,1.38.03,1.97,2.56,7.18,4.97,14.3,1.31,21.93-.29.6,1.73,3.32,2.66,3.31,4.3-.04,9.41,2.07,11.08-5.15,1.11-4.82,4.25-9.17,6.88-14.5M494.97,506.98c3.64,5.01,7.27,10.03,11.78,16.25.37-3.06.71-4.6.72-6.15.06-6.16.04-12.32.02-18.48-.03-8.89-.1-17.7,7.69-24.25,1.02-.86,1.09-4.28.21-5.54-.7-1.01-3.76-1.18-5.34-.59-2.37.89-4.2,3.17-6.55,4.14-3.65,1.49-7.56,2.38-11.36,3.52-2.4.72-6.11.77-6.9,2.32-1.3,2.55-1.8,6.52-.72,9.09,2.75,6.61,6.56,12.79,10.45,19.69M842.5,497.4c.77,2.44,1.42,4.92,2.35,7.29.35.9,1.33,2.13,2.05,2.15.84.02,2.12-.92,2.52-1.77,2.37-5.07,4.74-10.15,6.71-15.38,1.19-3.15.85-6.32-3.42-6.87-3.41-.44-4.43-2.61-4.14-5.4.33-3.16.8-6.45,2.02-9.34,1.9-4.51.4-7.36-4.65-6.96-2.62.21-5.15,1.53-8.82,2.7,6.05,2.44,6.75,5.22,4.64,13.09-3.7.36-7.44.82-8.35-4.3-.09-.53-.94-1.37-1.34-1.32-5.54.74-6.88-3.46-8.43-7.84-2.36,6.98-1.75,8.01,3.77,8.89,1.58,3.22,2.21,7.27,4.39,8.44,6.58,3.54,8.58,9.57,10.7,16.63M402.46,802.56c1.56,1.42,3.12,2.85,4.68,4.27,2.32-10.96,3.5-20.93,4.19-30.95.11-1.55-1.77-3.9-3.32-4.63-.89-.42-3.14,1.5-4.45,2.72-1.13,1.05-1.51,2.98-2.71,3.85-4.55,3.29-9.49,6.06-13.88,9.53-1.75,1.38-3.37,4.35-.29,6.24,4.95,3.03,10.17,5.61,15.78,8.97M389.01,922c6.88-2.6,1.84-6.76.84-10.48,3.11.63,5.74,1.16,8.37,1.69.31-.41.63-.81.94-1.22-1.64-3.23-3.28-6.46-4.9-9.65-4.9-1.94-5.98,2.8-8.37,4.9-5.25,4.59-10.16,9.57-15.24,14.41,3.58,2.42,4.25,5.52,1.05,7.18-5.19,2.7-10.87,4.45-16.91,6.82,0-.19,0,.99,0,1.94,1.74.2,3.19.36,5.75.66-2.69,1.63-4.38,2.65-6.07,3.67.08.43.17.86.25,1.28,2.45-.44,6.32-.13,7.05-1.5,1.36-2.54,2.37-3.18,5.23-4.37,8.05-3.34,16.6-6.87,22.02-15.34M447.59,352.03c-7.95,2.53-8.4-6.06-13.57-9.74-1.34,9.51-4.69,17.25-12.14,22.55,4.96,3.94,5.92,4.09,9.98,1.25,3.33-2.33,5.67-3.27,8.83,1.02,4.2,5.68,9.95,9.49,17.87,7.95,4.08-.8,8.28-.98,12.5-1.44-7.54-2.23-14.99-4.43-23.13-6.83.77-1.85,1.11-3.41,1.96-4.6,2.72-3.83,2.32-6.88-2.32-10.16M248.5,882.65c1.09-4.52,2.19-9.04,3.33-13.75,2.68,3.84,5.19,7.32,7.53,10.89.38.59.1,1.62.1,2.45,0,3.13,0,6.26,0,10.02,4.55-4.57,4.76-20.24.83-23.3-.73.96-1.46,1.92-2.48,3.26-3.47-5.48,1.46-12.49-4.3-17.67-.79,2.3-1.39,4.08-2.02,5.85-1.25,3.52-2.15,7.22-3.85,10.52-3.91,7.59-4.59,15.07.14,22.78.24-3.38.47-6.75.71-11.04M813.5,436.67c.33,6.41.54,12.83,1.09,19.22.14,1.59,1.44,3.07,2.2,4.6.57-.2,1.14-.41,1.7-.61,0-9.78.14-19.57-.07-29.35-.08-3.92,2.15-9.34-4.91-10.04-.36-.04-.86-.67-.94-1.09-1.12-5.54-4.56-5.66-10.58-3.34,3.45,2.43,6.01,4.15,8.46,6.01.82.62,1.83,1.53,1.95,2.42.53,3.72.75,7.48,1.09,12.19M826.5,392.25c-.49-2-.97-4-1.4-5.75-3.16-.8-6.2-1.56-10.11-2.54.74,2,.87,3.8,1.84,4.73,3.1,2.95,6.68,5.41,9.76,8.38,3.32,3.2,3.94,8.19,7.73,11.43,2.2,1.88,2.7,5.75,4.13,9.09,6.27-7.1,4.45-9.19-1.24-13.42-1.61-1.19-3.44-3.34-3.52-5.11-.21-5.04-2.72-6.45-7.19-6.8M762.38,378.35c-5.56-.89-9.72-3.6-12.8-8.5-.95-1.5-3.87-1.76-6.01-2.64-.14,7.64,4.57,13.24,11.62,14.89,2.54.59,5.85,1.64,7.04,3.57,2.95,4.77,7.05,3.79,11.6,4.38-.44-1.57-.4-2.73-.9-3.04-3.7-2.28-8.25-3.45-10.55-8.67M538.5,251.8c.27,2.26.66,4.51.8,6.77.39,6.11,1.35,12.42-4.97,17.32,2.31.66,4.33.52,6.36.46,4.09-.12,3.89-3.09,4-5.9.24-6.22.71-12.45.55-18.66-.03-1.29-2.24-2.78-3.76-3.61-.38-.21-1.96,1.76-2.99,3.62M542.99,879.95c-4.73-1.62-10.03-2.12-12.71-7.49-.46-.91-2.82-1.16-4.29-1.13-.51,0-1.56,1.94-1.35,2.7.33,1.16,1.43,2.22,2.42,3.06,1.01.86,3.11,1.2,3.33,2.11,1.78,7.3,9.73,4.79,13.52,9.1-.94-2.97,6.32-5.7-.92-8.34M284.84,836.13c1.41,3.04,3.1,4.02,6.59,2.28,3.66-1.83,6.98-4.45,10.13-7.1,1.33-1.12,1.86-3.2,2.75-4.84-1.65-.82-3.35-2.39-4.93-2.28-2.15.14-5.28-.01-5.13,4.06.04,1.19-1.97,2.62-3.27,3.66-1.73,1.38-3.69,2.49-6.13,4.23M805.52,860.99c.85,1.26,1.71,2.52,2.57,3.8,3.26-3.48,3.57-9.01.25-12.34-4.6-4.6-9.58-8.83-14.39-13.21-.55.24-1.1.47-1.65.71-.17,1.58-.95,3.51-.31,4.63.5.88,3,1.44,4.17.99,3.42-1.31,3.04.88,3.38,2.9.25,1.51.77,4.09,1.49,4.21,4.71.79,3.86,4.51,4.47,8.3M496.66,915.03h10.96c-.17-1.46-.03-2.16-.3-2.39-5.87-5.05-13.5-5.4-20.14-2.84-3.43,1.32-1.83,3.33.05,3.97,2.67.92,5.67.87,9.43,1.26M294.54,817.45c2.74-1.4,5.48-2.8,8.43-4.32-5.54-4.58-10.74-3.12-12.65,2.52-.5,1.47-2.97,2.31-4.6,3.33-1.35.84-2.87,1.43-4.11,2.39-.15.12.84,2.6,1.5,2.7,1.68.26,3.84.36,5.14-.5,2.19-1.45,3.87-3.68,6.29-6.13M604.74,338.04c-3.52-.12-7.02-.17-9.98,3.84,8.13,2.56,15.52,4.55,23.31,2.02.13-.54.26-1.08.39-1.62-4.33-1.27-8.65-2.54-13.72-4.24M819.22,898.03c.27-1.34.86-2.71.73-4-.16-1.53-1.22-2.97-1.4-4.51-.63-5.35-1.05-10.72-1.55-16.08-.43-.11-.85-.22-1.28-.34-.74,2.42-2.27,4.91-2.07,7.24.55,6.25,3.31,12.34.9,18.75-.07.17.3.51.58.96,1.11-.53,2.25-1.06,4.08-2.03M783.14,395.97c-1.86-1.83-3.72-3.65-6-5.9-4.25,8.32,2.22,7.96,4.73,8.75.49,2.38.33,4.4,1.15,4.95,1.53,1.02,3.63,1.18,5.5,1.69-.08-1.73.35-3.73-.38-5.12-.9-1.7-2.78-2.89-5-4.38M598.52,457.47c.89-4.48,3.5-7.37,9.37-7.88-2.01-1.47-2.96-2.63-3.46-2.46-3.36,1.16-7.16,1.99-9.74,4.18-1.58,1.35-1.27,4.93-1.8,7.5,1.7-.27,3.4-.54,5.63-1.34M637.29,348h-18.74c-.02.53-.04,1.05-.06,1.58,4.72.47,9.43,1.14,14.17,1.37,4.8.24,9.62.05,14.43.05.06-.58.12-1.16.19-1.73-3.03-.42-6.06-.84-9.99-1.27M797.59,413h6.84c-.37-6.02-2.04-6.66-13.71-5.72-1.21,5.32,2.57,5.36,6.87,5.72M272.21,837.96h9.9c.02-.29.05-.58.07-.87-1.22-.52-2.44-1.04-3.67-1.55.95-.8,1.9-1.59,2.7-2.26-.99-2.9-1.95-5.74-2.92-8.58-.42.11-.85.21-1.27.32-1.82,4.14-3.64,8.29-4.81,12.95M802.47,359.88c-.94-1.1-1.88-2.2-3.47-4.06-1.23,11.64-.48,15.07,4.06,18.15.17-2.42.49-4.46.39-6.49-.11-2.25-.62-4.48-.98-7.59M262.76,922.76c-.59-1.39-1.18-2.78-2.17-5.09-4.57,10.07-3.84,13.09,3.52,14.37-.29-3.12-.54-5.95-1.35-9.28M321.84,967c1.92-.62,3.83-1.23,5.75-1.85-.03-.55-.06-1.11-.1-1.66-3.58-.5-7.16-1.14-10.76-1.42-1.51-.12-3.08.55-4.62.85.57,1.29,1.14,2.57,1.3,2.91,3.05.47,5.33.81,8.43,1.16M297.83,950c-5.01-.88-10.02-1.77-15.88-2.8.71,2.24.72,3.41,1.32,3.98,2.03,1.94,14.37,1.45,16.62-.5-.42-.22-.83-.45-2.06-.68M796.49,356.92c0-1.81.34-3.7-.07-5.41-.67-2.84-1.65-5.81-6.23-3.77.43,2.58.96,5.23,1.29,7.91.44,3.53,2.45,3.13,5.01,1.27M742.5,362.38c-.44-2.74-.89-5.48-1.39-8.61-5.3,3.07-4.72,9.9.67,14.38.27-1.87.5-3.39.72-5.77M408.98,151.94c-2.69-.19-5.37-.38-8.06-.57-.03.41-.07.82-.1,1.23,2.27.72,4.54,1.43,7.79,2.46-2.13.78-3.17,1.16-5.3,1.94,2.34.83,3.56,1.26,3.97,1.41,1.51-1.33,2.56-2.6,3.91-3.34,1.61-.88,3.46-1.31,5.21-1.93-.08-.5-.16-.99-.24-1.49-2.12.11-4.24.21-7.18.3M491.94,377.95c-1.16.17-2.31.34-3.81.56,4.22,4.21,9.31,4.31,15.04-.69-3.53-.15-7.05-.29-11.23.13M322.06,952c3.42-.85,7.7,1.86,10.32-2.68-6.02-.2-11.95.2-17.86.81-.45.05-.75,1.5-.92,1.87h8.46M777.03,894.99c.28,1.26.45,3.58.84,3.62,3.09.3,6.22.17,9.43.17v-3.78c-3.33-.22-6.51-.43-10.28,0M525.54,480.41c.07,1.32.32,2.67.18,3.97-.48,4.47-1.09,8.93-1.71,13.81,3.71-1.16,4.51-9.09,2.97-21.47-.68,1.32-1.08,2.1-1.44,3.7M267.53,956.76c.82,4.65,4.54,2.99,7.24,3.11.87.04,2.21-1.21,2.56-2.16.22-.6-1.39-2.55-1.5-2.5-2.56,1.24-5.73-3.23-8.3,1.54M551.5,612.57c-.6-.95-1.21-1.9-1.81-2.85-.38.13-.77.26-1.15.39v14.81c.72.04,1.45.08,2.17.11.27-3.88.53-7.77.8-12.46M728.47,318.74c-.44-.85-.67-2.02-1.36-2.47-1.32-.86-2.91-1.31-4.38-1.93-.21,1.91-1.09,4.11-.43,5.66.62,1.46,2.86,2.24,4.61,3.47.66-1.63,1.13-2.79,1.57-4.73M772.25,883.22c-.68-1.04-1.37-2.07-2.87-4.34-.8,4.23-1.38,7.27-2.05,10.85,1.97.5,3.85.98,6.4,1.63-.51-3.01-.88-5.19-1.48-8.13M728.99,351c.59.23,1.16.61,1.77.67,1.75.16,3.51.19,5.26.27-.06-1.03.24-2.71-.25-2.98-1.74-.98-3.7-1.76-5.67-2.06-1.44-.22-3.01.43-5.62.89,1.64,1.41,2.67,2.3,4.5,3.23M265.5,859.55c.82,1.92,1.64,3.84,2.96,6.94,1.25-3.16,2.44-4.88,2.45-6.61,0-1.4-1.09-3.53-2.27-4.06-2.26-1.01-3.38.51-3.15,3.72M422.14,430.1c-2.03,1.04-4.07,2.08-6.42,3.29,4.27,3.7,6.01,3.47,10.09-.82-1.13-.68-2.16-1.3-3.67-2.47M736.41,325.39c-.46-.15-1.21-.19-1.32-.48-1.03-2.63-2.72-2.29-4.39-.88-.8.68-1.19,1.85-1.77,2.79,1.72.99,3.37,2.43,5.2,2.73.72.12,1.86-2.31,2.28-4.16M336.36,959.29c1.71-1,4.9-2.07,4.86-2.99-.13-2.84-2.18-4.61-5.48-4.15,0,2.38,0,4.49.63,7.15M272.5,842.41c-2.83-3.77-3.57-3.66-8.11,1.57,2.04.71,3.89,1.66,5.81,1.86.68.07,1.54-1.71,2.3-3.43M301.18,960c4,.17,2.03-2.88,2.16-4.5.06-.77-1.44-1.66-2.23-2.49-1.14,1.16-2.86,2.18-3.22,3.55-.23.88,1.55,2.28,3.29,3.45M805.27,374.98c.41.73,1.19,1.46,1.17,2.18-.11,3.9,1.88,4.39,6.11,3.11-2.64-3.36-4.94-6.29-7.96-10.13,0,2.44,0,3.42.68,4.84M849.96,427.03c.43-3.41-1.19-5.12-5.72-5.72.61,2.49.87,4.57,1.73,6.37.22.46,2.33.02,4-.64M256.5,940.55c-.86-1.96-1.71-3.92-2.57-5.89-1.35,2.26-1.61,4.04-1.56,5.81.04,1.16.53,2.31.81,3.46,1.1-.86,2.21-1.72,3.31-3.39M245.51,933.87c1.1.43,2.2.86,3.3,1.3-.1-.97-.2-1.94-.29-2.92-.12-1.32-.16-2.65-.36-3.95-.38-2.47-.85-4.93-1.29-7.39-.2.05-.4.11-.6.16-.26,3.99-.52,7.98-.76,12.8M267.49,937.49c1.08-.37,2.42-.49,3.16-1.21.44-.43.25-2.46-.18-2.67-1.77-.85-3.75-1.28-5.65-1.86-.18.39-.36.78-.53,1.17.85,1.37,1.69,2.74,3.2,4.57M276.77,940.03c-1.09.87-2.17,1.75-3.26,2.62,1.05,1.11,1.95,2.52,3.23,3.19.58.31,1.92-.84,2.92-1.33-.74-1.36-1.48-2.73-2.89-4.48M348.49,945.1c-.47-.91-.93-1.82-1.4-2.73-.38,0-.75,0-1.13,0-.28,3.41-.57,6.82-.87,10.48,5.1-1.13,2.86-4.55,3.4-7.74M862.48,480.15l-.61-9.83c-.48.05-.96.1-1.43.16-1.96,3.8-1.83,7.31,2.05,9.68M399.16,893.96c.5-1.49,1.12-2.95,1.44-4.47.15-.68-.32-2.14-.47-2.14-1.03.03-2.66.05-2.96.65-1.01,2.01-1.72,4.29,1.99,5.96M795.82,903c-1.99-.24-3.98-.47-5.97-.71-.12.77-.23,1.55-.35,2.32,2.45.42,4.98,1.42,7.32,1.09,2.06-.29,1.63-1.87-1-2.71Z"/>
  <path class="cls-1" d="M510.45,369.56c3.82-1.05,7.44-1.66,10.95-2.65,1.13-.32,1.98-1.64,2.96-2.51-1.03-.8-1.95-2.06-3.11-2.33-4.99-1.18-10.06-1.99-15.06-3.14-1.3-.3-2.42-1.36-3.94-2.26,7.15-4.56,16.97,2.83,22.34-7.52-3.83-2.26-8.09-4.78-11.83-7-2.61.65-4.99,1.29-7.39,1.82-3.28.72-6.84.81-9.8,2.19-2.19,1.03-3.86,3.52-5.31,5.67-2.61,3.87-6.61,2.46-9.81,2.41-5.12-.09-10.2-1.53-15.33-2.22-3.82-.52-7.68-.77-11.64-1.16.8-2.03,1.23-3.76,2.11-5.21,3.72-6.1-1.22-9.85-4.48-12.95-1.98-1.89-6.52-1.15-9.93-1.4-.51-.04-1.23.88-1.63,1.49-6.72,10.13-6.48,9.81-16.52,2.44-5.44-3.99-12.03-4.01-14.57,4.16-.28.91-.47,1.93-1.03,2.67-.7.92-1.72,1.6-2.44,2.25-2-4.31-3.68-8.13-5.58-11.83-.34-.67-1.57-1.24-2.39-1.26-7.99-.15-15.98-.29-23.97-.17-4.76.07-9.51.94-14.26.89-11.93-.14-23.86-.53-35.79-.98-3.67-.14-5.53-2.36-5.51-6.12.04-7.17.13-14.34-.02-21.5-.24-11.72-.49-23.44-1.01-35.14-.88-19.93-2.19-39.84-2.83-59.77-.2-6.14,1.6-12.32,1.73-18.51.15-7.07-.45-14.17-.89-21.25-.57-9.18-1.65-18.33-1.87-27.51-.18-7.73.51-15.49.93-23.24.09-1.64.12-4.11,1.1-4.73,2.39-1.5,5.32-2.93,8.04-2.96,8.56-.1,17.13.57,25.7.74,7.5.15,15-.1,22.5.06,9.26.2,18.5.87,27.76.89,7.58.02,15.25-.06,22.72-1.17,3.32-.49,6.22-3.68,9.39-5.5,1.63-.93,3.39-1.82,5.19-2.2,3.75-.78,8.27,1.67,11.21-2.81.16-.24,2.19.76,3.67,1.29,1.1-3.69,2.62-2.8,5.6-.42,2.08,1.66,5.74,1.42,8.72,1.84,3.23.46,6.5.59,9.72,1.1,1.01.16,2.1.89,2.82,1.67,1.9,2.04,3.8,4.13,5.33,6.44.64.96.49,2.53.48,3.82-.03,2.99.67,5.06,4.36,4.33.48-.1,1.49.45,1.62.89.9,3.12,1.63,6.29,2.42,9.45-.43.18-.86.37-1.29.55-.7-.76-1.96-1.48-2.01-2.27-.45-6.95-6.9-8.51-10.93-12.09-3.32-2.95-7.54-.82-7.73,3.5-.21,4.97-.45,9.95-.37,14.92.06,3.75.48,7.51.97,11.24.82,6.25-1.55,9.74-7.85,11.56-1.56.45-2.95,1.47-5.09,1.93,9.17-15.96,9.13-31.75,2.31-46.74-8.48,1.04-15.42,2.01-22.4,2.72-7.62.78-15.28,1.25-22.9,2.09-1.13.12-2.12,1.52-3.19,2.31-1.65,1.22-3.57,2.2-4.91,3.7-3.46,3.84-6.87,7.75-9.88,11.93-1.52,2.1-2.42,4.78-3.07,7.33-.42,1.65-.2,3.64.31,5.3.49,1.61,2.78,3.34,2.43,4.4-1.09,3.28-2.57,6.71-4.85,9.23-1.78,1.97-4.96,2.68-7.91,4.14-1.21-2.01-2.27-5.06-4.39-6.91-1.72-1.51-5.24-2.84-6.99-2.05-3.38,1.52-7.66,3.14-7.64,8.23.02,7.83-.38,15.7.3,23.47.15,1.75,3.97,3.27,6.23,4.7.63.4,1.7.11,2.57.14,9.43.36,12.6.91,16.78-11.97,1.54,2.92,2.68,5.18,3.9,7.4,1.04,1.88,1.93,5.05,3.3,5.3,3.26.58,6.92.3,10.12-.65,2.83-.84,5.21-3.14,7.88-4.61,2.34-1.28,4.82-2.3,7.23-3.46.85-.41,1.8-.75,2.47-1.38,2.48-2.34,4.58-5.16,7.32-7.1,5.48-3.88,7.41-9.78,5.13-16.04-.59-1.61-.46-4.44.56-5.44,1.38-1.35,3.92-1.62,6.03-2.05,1.44-.29,2.98-.06,4.82-.06,1.44,6.32-.86,13.1,4.11,19.04,4.77,5.69,11.5,7.03,17.32,8.5,6.54,1.65,14.26-.2,18.95-8.25,2.06,3.3,3.71,6.34,5.81,9.02.57.73,3.54.78,3.67.45,1.06-2.66,2.27-5.47,2.35-8.26.13-4.72-.19-9.53-.97-14.19-.7-4.18-2.28-8.22-3.47-12.32-1.11-3.82-2.31-7.62-3.25-11.48-.15-.62.9-2.18,1.41-2.19,1.35-.02,3.02.19,3.99.99,2.47,2.05,4.93,4.25,6.81,6.82,1.36,1.86,2.45,4.4,2.49,6.65.16,9.69-.33,19.4-.16,29.09.19,11.07.72,22.13,1.35,33.19.08,1.38,1.66,2.67,2.54,4,1.15-1.4,2.43-2.72,3.4-4.23.58-.9.98-2.11.94-3.16-.39-8.86-.95-17.71-1.36-26.57-.08-1.83.36-3.68.38-5.52.06-4.81-.1-9.62.05-14.42.21-6.59.96-13.17.91-19.76-.15-18.42-.59-36.84-.95-55.26-.08-4.27-3.54-6.96-10.42-6.98-10.24-.03-20.49.84-30.73.81-10.4-.03-20.8-.75-31.21-1.02-5.12-.13-10.26.11-15.38.11-32.5.01-65,.08-97.5-.08-4.49-.02-9.1-.87-13.41-2.14-1.48-.44-3.09-3.27-3.19-5.09-.38-6.64-.02-13.33-.18-19.99-.2-8.56-.74-17.1-.94-25.66-.16-6.74,4.63-10.27,11.29-9.01,4.93.94,9.96,1.82,14.96,1.89,16.83.23,33.66,0,50.5.13,5.75.04,11.5.88,17.26.88,5.92,0,11.84-.92,17.76-.86,14.92.14,29.84.75,44.76.9,16.5.17,32.99.04,49.49.04,20.51,0,41.02.06,61.53-.05,4.92-.03,9.84-.86,14.76-.88,4.25-.02,8.51.92,12.75.86,9.58-.12,19.14-.68,28.72-.87,2.4-.05,4.82.93,7.22.88,5.76-.13,11.5-.74,17.26-.9,5.97-.17,11.95-.11,17.92-.02,21.59.3,43.17.75,64.76.93,6.58.05,13.17-.7,19.76-.91,4.77-.15,9.65-.6,14.29.19,3.99.68,5.07,4.5,4.98,8.3-.31,13.09-.66,26.17-.98,39.26-.05,1.83.06,3.67-.02,5.5-.2,4.69-2.32,6.71-7.04,6.72-21.67.01-43.33,0-65,0h-80.76c-13.81,0-27.63,0-41.44,0-13.14.01-12.73,3.66-13.62,13.44-.42,4.68.76,9.49.82,14.24.15,10.48.05,20.97.05,31.45,0,15.82.09,31.64-.04,47.46-.05,6.58-.07,13.11,3.08,19.09,2.97,5.63.02,10.62-1.02,15.94-.8,4.05-.3,8.36-.44,12.55-.15,4.22-.53,8.43-.55,12.64-.06,18.33-.03,36.67-.03,55,0,7.28,0,14.56,0,21.84,0,5.86,2.24,8.61,8.06,10.42,1.62.5,3.07,1.54,4.33,2.19-2.99.86-5.97,1.82-9.01,2.57-5.77,1.42-9.93-1.77-9.52-7.09.8-10.6,1.12-21.25,1.07-31.88-.09-19.24-.61-38.48-.92-57.72-.08-4.83.12-9.67-.05-14.49-.13-3.58-.38-7.21-1.06-10.72-1.04-5.32-9.28-8.84-12.91-5.04-5.08,5.31-11.41,4.21-17.33,5-7.85,1.04-15.47,5.92-13.94,12.75,2.89,3.14,4.83,5.29,6.83,7.4,1.52,1.6,3.33,2.97,4.59,4.74.73,1.01,1.29,3.09.75,3.85-.83,1.16-2.8,2.4-4.07,2.21-7.84-1.19-7.82-1.32-7.82,6.61,0,5.83-.02,11.67,0,17.5.03,6.63,1.63,7.87,7.64,6.09.59-.18,1.3.06.47,0,0,2.05-.17,3.77.03,5.45,1.11,9.27,6.35,17.99,3.8,27.73-.42,1.61-1.55,3.04-2.96,5.7-1.35-6.44-2.47-11.77-3.79-18.02-9.78,7.25-2.41,14.89-3.15,21.75,6.6.96,7.46,2.36,7.16,9.7-.25,6.1-2.09,12.42,2.68,18.41,3.2,4.02,5.5,9.03,3.79,15.39-2.47,9.22-9.88,11.7-17.54,11.78-3.73.04-7.46-.57-11.19-.93-1.22-.12-2.43-.38-4.38-.7,1.43-1.56,2.28-2.5,3.39-3.73M510.5,247.02c-3.24.32-7.08-1.4-9.02,3.03-3.63,8.26-9.06,15.7-11.11,24.71-.21.92-2.08,1.47-3.17,2.19-.56-1.26-1.58-2.52-1.58-3.78,0-2.57.43-5.16.92-7.7.57-2.99,1.12-6.03,2.18-8.87,1.73-4.64,4.42-8.98,5.68-13.72,1.57-5.91,2.55-12.07,2.98-18.18.5-7.25.55-14.6.02-21.84-.39-5.35-2.03-10.6-3.03-15.51-4.97-1.65-9.79-2.93-13.06,1.54-2.58,3.53-5.61,4.76-9.73,5.23-2.93.33-7.27.11-7.72,4.28-.84,7.82-1.3,15.73-1.25,23.59.03,5.12,1.28,10.24,1.88,15.36.57,4.87-2.86,8.6-7.88,8.62-7.67.02-15.33-.05-23,.03-4.56.05-7.94,2.94-6.98,6.2,1.21,4.09,2.88,8.07,4.65,11.97.59,1.31,1.92,2.81,3.21,3.19,8.01,2.36,13.93,8.04,20.58,12.55.73.49,1.25,1.68,1.32,2.58.03.46-1.09,1.24-1.83,1.48-2.43.77-4.95,1.27-7.38,2.05-2.71.87-5.99,1.25-7.9,3.04-3.57,3.34-3.67,3.71-7.55.56-.81-.66-2.73-1.4-2.79-1.3-1.83,3.07-4.81,6.22-4.87,9.41-.09,4.55,2.2,9.18-4.5,10.77-.53.13-.78,1.34-1.23,1.99-2.18,3.18-4.38,6.35-6.97,10.09,1.2.95,2.72,3.17,4.21,3.15,3.63-.04,7.24-1.34,10.9-1.66,1.57-.14,3.66.47,4.79,1.51,2.04,1.88,3.54,4.35,4.82,6.01,2.22-3.84,4.37-7.56,6.5-11.23,10.13,7.38,18.96,11.21,26.3.85.5-2.65.82-4.47,1.18-6.28.37-1.83.79-3.65,1.18-5.48-.4-.07-.8-.14-1.2-.22-.59,1.24-1.18,2.47-1.76,3.71-.6-.07-1.19-.14-1.79-.21,0-2.32.42-4.74-.1-6.94-.8-3.36.22-5.57,3.47-5.68,3.23-.1,4.76,2.33,4.61,5.53-.26,5.73-.58,11.46-.94,17.19-.15,2.44.13,5.12-.81,7.25-2.16,4.89-4.93,9.51-7.46,14.24,4.88,4.12,9.85,4.61,15.24,2.19,1.31-.59,2.64-1.16,4.03-1.52,7.3-1.87,14.7-3.37,21.91-5.56,7.54-2.29,9.75-9.06,6.84-16.39-1.42-3.58-1.71-7.98-1.22-11.85.49-3.85,3.53-7.44,3.77-11.24.41-6.61,1.33-14.16-1.31-19.74-2.92-6.17-3.22-11.02-.92-16.88,1.98-5.04,1.13-9.82-3.1-14.34M380.04,246c-2.17,0-4.33-.01-6.5,0-5.57.04-9.78,3.16-9.9,8.6-.18,7.89.21,15.83,1.08,23.66.23,2.07,2.84,4.9,4.9,5.5,3.85,1.13,8.1,1.13,12.19,1.18,10.45.14,20.9.3,31.34-.07,4.67-.17,10.25-.27,11.46-6.6.94-4.91,1.48-9.94,1.71-14.93.05-1.07-1.93-2.27-3.02-3.36-1.9-1.89-3.94-3.66-5.75-5.63-3.87-4.23-7.82-8.29-14.11-8.34-7.47-.06-14.95-.01-23.4-.01M411.36,230.33c1.99,1.67,4.7,2.96,5.83,5.09,3.1,5.82,8.28,5.02,13.31,5.12,5.82.11,11.67-.06,17.47.34,5.97.41,8.48-1.54,8.51-7.55.04-8.62.02-17.25,0-25.87,0-4.16-3-7.06-6.18-7.21-9.02-.42-18.16-.3-27.13.72-5.58.63-10.98,3.13-16.33,5.16-1.38.52-3.16,2.37-3.2,3.66-.15,4.53.57,9.08.6,13.62.03,4.43,2.37,6.23,7.11,6.93M514.45,240.47c.07-.31.07-.86.22-.91q6.04-1.98,2.82-7.89c-.76-1.39-1.12-3.04-2.05-4.28-.94-1.26-2.36-2.15-3.57-3.2-1.12,1.41-3.3,2.95-3.15,4.2.48,4.06,1.77,8.03,2.92,11.98.11.37,1.42.4,2.81.1M449.49,183.71c-1.99-1.76-3.98-3.51-6.87-6.06-1.3,4.3-2.88,7.3-2.88,10.29,0,2.02,2.23,4.04,3.46,6.06,1.77-1.77,3.73-3.39,5.22-5.38.78-1.04.71-2.71,1.08-4.91Z"/>
  <path class="cls-1" d="M538.5,615c0,6,.32,11.52-.1,16.99-.33,4.34,1.2,7.68,4.05,10.51.97.96,2.79,1.01,4.09,1.72,3.79,2.08,5.71,7.39,4.64,11.66-3.28,13.11-6.71,26.19-9.49,39.4-.77,3.68.19,7.84.88,11.69,1.32,7.43,3.62,14.74,4.38,22.22.71,6.97-.2,14.1-.1,21.15.09,5.97.62,11.94.98,18.48-.56.2-1.86,1.02-3.2,1.1-5.08.31-5.86,3.51-6.22,7.79-.66,7.74-.27,16.15-3.31,22.94-3.43,7.66-4.75,15.03-4.62,23.07.1,6.5.21,13.01-.04,19.5-.22,5.82-.94,11.62-1.43,17.37-4.45.53-8.16,1.08-11.89,1.38-5.24.43-8.32,4.08-9.08,8.31-1.2,6.6-6.1,7.39-10.8,8.64-4.97,1.32-9.34,2.74-9.85,8.94-.11,1.3-1.04,3.14-2.11,3.65-4.54,2.18-5.66,6.26-6.83,10.55-1.33,4.87-6.07,4-9.49,4.84-6.73,1.65-12.55,3.96-14.58,11.5-.89,3.28-.09,5.25,3.4,5.58,4.57.43,9.15,1,13.72.92,3.39-.06,5.27,1.04,5.97,4.67-8.27,1.7-16.49,3.43-24.78.06-3.27-1.33-7.26-9.14-7.23-12.74.07-7.16,5.07-9.23,12-10.93-2.36-2.56-3.71-4.94-5.76-6.06-5.44-3-11.21-5.39-16.79-8.14-3.71-1.83-7.19-4.19-11.02-5.67-3.08-1.19-6.52-1.52-9.83-2.06-3.47-.57-7.83,1.45-9.17-4.48-.27-1.19-4.93-1.4-7.18-1.96-6.9-5.99-11.15-14.36-21.71-16.23-4.93-.87-10.13-5.64-13.27-10.03-5.51-7.71-12.11-14.14-18.92-20.51-.92-.86-1.81-1.94-2.27-3.09-.99-2.48-.95-6.44-2.66-7.38-4.52-2.47-9.72-3.75-14.72-5.3-1.82-.57-3.83-.55-5.75-.8-.1-.62-.2-1.24-.3-1.86,2.15-1.12,4.19-2.58,6.46-3.3,5.07-1.6,10.22-2.98,15.4-4.16,6.43-1.46,12.88-3.17,19.42-3.78,6.88-.65,13.88-.24,20.82-.07,1.47.03,3.35.6,4.29,1.62,3.58,3.85,6.81,8.02,10.26,11.99,1.07,1.23,2.56,2.1,3.6,3.35,1.18,1.4,3.01,3.08,2.94,4.56-.41,8.23,2.04,15.82,5.51,22.89,2.56,5.23,1.11,9.42-1.11,13.69-3.59,6.94-3.19,13.45,2.24,18.56,1.24,1.17,4.22,1.61,5.82.96,1.61-.66,3.51-3.08,3.54-4.75.22-12.75,2.93-25.56-.73-38.28-.66-2.31-.18-4.98-.09-7.47.13-3.99-.31-7.55-2.76-11.15-1.3-1.91-.61-5.5-.12-8.21.53-2.93,1.77-5.75,2.91-8.54,1.15-2.81,1.27-6.13,5.09-7.52,1.39-.51,2.69-3.36,2.74-5.17.25-10.91,5.23-20.13,10.18-29.32,1.61-2.99,4.28-5.39,6.3-8.18,2.25-3.11,4.29-6.37,6.47-9.54.93-1.34,1.93-2.64,2.97-3.89,1.8-2.17,3.74-4.22,5.47-6.45.77-1,1.02-2.4,1.78-3.41,4.39-5.84,4.42-5.82,4.03-12.51,3.34-.43,7.04-.13,9.96-1.51,3.04-1.44,5.74-4.17,7.84-6.91,2.73-3.57,5.33-7.48,6.86-11.66,1.39-3.78,2.18-8.25,1.58-12.17-.69-4.48-8.09-5.59-12.61-2.1-2.2,1.7-3.8,4.16-5.73,6.22-2.64,2.81-4.88,6.4-8.11,8.17-5.7,3.13-6.19,8.09-7.01,13.46-.28,1.81-1.99,4.51-3.47,4.83-5.47,1.19-8.79,4.32-12.74,8.26-6.31,6.31-10.67,13.94-16.61,20.32-4.93,5.3-10.82,9.72-16.28,14.53-.5.44-1.19.87-1.36,1.44-2.41,8.14-10.62,9.4-16.17,13.81-5.26,4.18-12.19,5.18-17.44,8.53-7.22,4.61-14.69,8.01-22.6,10.81-4.67,1.65-9.43,3.07-14.13,4.64-1.78.6-3.65,1.12-5.24,2.08-5.2,3.16-10.12,6.85-15.52,9.6-2.11,1.07-5.22.18-8.24-.87,2.37-.81,4.74-1.62,7.84-2.67,1.4-5.14-.82-10.29-3.59-15.26-3.59-6.43-7.35-12.77-11.03-19.15-2.22-3.85-4.58-7.62-6.61-11.57-3.99-7.78-7.8-15.65-11.65-23.49-.77-1.57-1.07-3.46-2.1-4.82-3.58-4.74-5.03-9.92-5.08-15.89-.03-4.29-1.14-8.66-2.34-12.83-2.55-8.83-3.85-17.69-3.64-26.96.24-10.91-.84-21.84-.8-32.75.08-18.09.27-36.19,1.11-54.25.29-6.32.26-12.98,3.88-18.89,1.17-1.91.68-4.75,1.36-7.05,2.97-10.1,6.15-20.14,9.12-30.24,2.58-8.75,4.97-17.56,7.48-26.33.31-1.07.48-2.68,1.21-3.06,6.41-3.32,7.3-10.19,10.3-15.67,1.29-2.36,2.49-4.83,3.28-7.38,2.85-9.18,9-16.23,14.75-23.58,5.49-7.01,10.52-14.4,16.32-21.14,6.22-7.24,12.95-14.06,19.71-20.81,6.17-6.15,12.63-12.01,19.08-17.88,1.12-1.02,2.76-1.57,4.24-2.1,7.02-2.55,9.08-5.45,9.09-13.2.02-8.58.96-16.73,7.06-23.66,2.02-2.3,2.43-6.01,4.04-10.35,1.83,2.42,4.03,4.47,3.7,5.02-1.93,3.25.82,8.53-4.6,10.31-1.33.44-2.39,2.33-3.1,3.79-.54,1.1-.16,2.61-.47,3.86-2.04,8.06,1.76,12.09,9.81,9.94,2.03-.54,3.51-1.3,3.86,1.29.07.52-1.94,1.72-3.11,1.94-4.47.83-6.55,4.01-9.59,7.05-6.4,6.4-5.22,11.09-1.97,18.4,2.9,6.52,5.9,12.78,9.94,18.6.37.54,1.24,1.02,1.22,1.5-.27,5.93,4.43,7.9,8.29,10.5,3.11,2.1,5.42,4.31,3.2,8.49-.38.71.36,2.08.72,3.1,1.28,3.61,1.77,7.97,4.16,10.57,2.23,2.42,6.5,2.97,10.12,4.44-1.54,1.85-4.19,3.63-4.02,5.07.54,4.54,2.16,8.96,3.32,13.43.54,2.1.97,4.23,1.45,6.35,1.05,4.68,1.91,9.43,3.3,14,.25.81,3.41,1.79,4.08,1.25,4.68-3.73,11.44-5.85,9.8-14.45-.95-4.98,1.51-6.12,6.57-5.46,3.37.44,6.89-.36,10.33-.27,2.38.06,4.75.7,7.13,1.08-.02.64-.04,1.28-.05,1.93-2,.83-3.93,1.94-6.02,2.43-3.2.75-4.52,3.7-3.88,5.62.85,2.54-.81,7.05,4.22,7.55.9.09,1.67,1.56,2.5,2.39,1.19,1.2,2.26,2.57,3.6,3.57,3.26,2.43,6.8,4.52,9.92,7.1,1.38,1.14,1.76,3.47,3.1,4.72,5.67,5.29,11.49,10.42,17.35,15.5.76.66,2.15.55,3.14,1.01,1.35.63,2.64,1.39,3.88,2.23.93.62,1.72,1.45,2.57,2.18.16-1.2.66-2.49.41-3.6-1.02-4.52-2.26-8.98-3.4-13.37,5.21-2.77,5.61,1.26,6.62,3.66h8.59c3.22,5.25,2.59,11.13,1.39,17.19-1,5.07-1.53,10.24-2.11,15.38-.12,1.02.16,2.74.82,3.1,4.98,2.7,5.4,7.34,6.51,12.24,1.36,5.98,5.23,11.43,6.37,17.42,1.34,7.05.9,14.43,1.24,22.16M440.21,664c-3.25-.33-6.5-.94-9.75-.96-18.4-.09-36.79-.04-55.19-.05-1.33,0-2.67.04-3.99-.09-12.34-1.28-24.66-2.8-37.01-3.82-6.02-.49-8.82,1.67-8.59,7.65.46,11.92.51,24.15,3.38,35.59,2.78,11.09,8.87,21.36,13.55,31.97.32.72,1.1,1.22,1.57,1.9,1.47,2.15,2.96,4.28,4.3,6.5,1.25,2.09,2.09,4.46,3.53,6.39,2.71,3.64,5.66,7.12,8.64,10.55,1.66,1.9,3.29,4.46,5.44,5.17,4.66,1.53,9.31,1.06,13.1-2.95,4.74-5.02,9.74-9.79,14.61-14.67.58-.58,1.1-1.23,1.62-1.87,1.47-1.78,3.18-3.43,4.35-5.39,2.85-4.75,10.32-5.23,10.94-12.18.12-1.35,2.21-2.91,3.74-3.68,8-3.98,11.6-11.96,17.06-18.26,5.61-6.48,10.92-13.28,17.06-19.21,6.59-6.36,14-11.87,21.81-18.39-2.68-1.32-4.55-2.94-6.55-3.11-7.54-.63-15.12-.78-23.64-1.11M349.53,508.74c-3.17,7.41-6.39,14.8-9.47,22.26-1.03,2.49-1.49,5.21-2.55,7.68-2.92,6.85-6.55,13.45-8.89,20.49-2.62,7.88-4.34,16.09-6.03,24.24-1.26,6.08,2.9,13.3,7.5,13.45,3.41.11,6.84-.8,10.27-.81,27.3-.07,54.61-.04,81.91-.04,4.15,0,8.29,0,12.44,0,4.99,0,10.02.37,14.94-.2,1.76-.21,4.24-2.45,4.69-4.2,2.2-8.6-4.53-14.72-7.01-22.04-.54-1.59-3.35-2.38-5.07-3.6-.65-.46-1.18-1.1-1.72-1.71-4.15-4.67-8.27-9.38-12.45-14.03-1.72-1.92-3.51-3.79-5.4-5.55-4.12-3.85-8.44-7.48-12.44-11.45-3.88-3.85-7.32-8.14-11.18-12.01-4.22-4.22-8.77-8.11-13.07-12.25-4.57-4.39-5.82-12.28-13.83-13.13-.6-.06-1.34-1.01-1.61-1.7-1.85-4.76-5.57-3.29-7.92-1.5-3.15,2.39-7.38,4.06-7.86,9.34-.2,2.16-3.15,4.07-5.25,6.76M448.46,779.57c-2,5.9-6.03,10.26-10.42,14.49-4.03,3.88-7.7,8.14-11.4,12.35-3.92,4.46-3.52,12.83.6,15.57,3.52,2.34,7.07,4.65,10.52,7.09,1.64,1.16,2.91,2.95,4.65,3.85,7.48,3.85,14.97,7.71,22.66,11.12,8.04,3.57,16.16,7.07,24.51,9.77,4.87,1.57,10.25,1.91,15.42,2.1,7.35.26,9.06-2.14,9.63-9.21.62-7.64.76-15.49,5.59-22.26,1.7-2.38,2.8-5.53,3.17-8.45.74-5.84.76-11.77,1.13-17.66.3-4.88,1.08-9.77.91-14.63-.4-11.5-1.69-22.98-1.77-34.48-.06-8.66,1.33-17.32,1.8-25.99.26-4.72,1.38-10.08-6.76-12.56-.37.62-1.16,2.19-2.19,3.57-1.76,2.37-3.53,4.76-5.58,6.88-1.94,2.01-4.35,3.57-6.35,5.53-7.24,7.07-13.63,15.3-21.78,21.05-8.34,5.89-13.25,15.57-23,19.58-.57.23-.98.89-1.42,1.38-3.13,3.45-6.25,6.91-9.89,10.91M471.44,511.56c-1.58-.66-4.39-1.12-4.54-2.03-.94-5.48-4.25-7.59-9.35-8.04-.73-.06-1.31-1.45-2.09-1.62-2.17-.47-4.4-.63-6.61-.91-.12,1.35-.31,2.71-.34,4.06-.09,4.24.87,7.94,2.67,12.07,3.62,8.29,5.04,17.73.97,26.3-3.81,8.01-2.91,15.36.44,22.77,1.46,3.22,4.05,5.93,6.14,8.86,2.96,4.16,5.61,8.66,11.16,9.94.29.07.34.89.64,1.25,1.86,2.27,3.75,4.51,5.65,6.75.73.86,1.49,1.7,2.62,2.97-2.42.44-4.14.95-5.88,1.02-5.35.22-6.88,1.53-5.27,6.6,1.9,5.99,4.85,11.66,7.55,17.95,1.49-2.86,2.06-5.73,3.48-6.24,1.98-.71,4.6.33,6.95.62.04.65.07,1.29.11,1.94-2.6.92-5.19,1.83-7.85,2.77-.53,2.25-.33,5.52-1.87,7.1-4.48,4.62-.56,7.8,1.15,11.43.32.69,1.02,1.2,1.61,1.87-.61.72-1.16,1.14-1.43,1.7-2.2,4.57-4.88,9.13-2.79,14.46,1.85,4.72,3.59,9.55,6.14,13.89,1.27,2.16,4.37,4.78,6.42,4.6,3.19-.27,6.21-2.71,9.23-4.36.28-.15.29-1.37,0-1.87-2.42-4.34-.38-9.97-4.47-14.04-1.36-1.35-1.52-4.74-1.02-6.93,1.13-4.94,15.17-8.08,19.08-4.52,3.5,3.18,6.16,3.12,9.32-.21,3.22-3.39.22-5.24-1.84-7.3-.94-.94-1.98-1.78-3.26-2.92,1.83-2.68,3.52-5.17,5.7-8.36-1.9-.94-4.6-2.16-7.2-3.57-3.06-1.66-7.49-2.8-8.71-5.4-1.89-4.04-4.75-3.94-7.77-4.11-2.69-.15-5.43.45-8.31.73-.97-3.27-.13-5,3.64-4.85,3.49.14,7.02-.23,10.48.13,2.13.22,4.15,1.41,6.24,2.14,1.59.55,3.57,1.88,4.69,1.37,1.26-.58,2.17-2.76,2.47-4.38.42-2.26-.21-4.7.18-6.97,2.14-12.24,2.57-24.56,1.83-36.92-.15-2.45-.86-5.58-2.51-7.07-4.56-4.14-9.69-7.68-14.73-11.26-3.81-2.7-7.87-5.07-11.77-7.65-.67-.44-1.64-1.21-1.62-1.8.18-6.64-9.82-6.59-8.92-13.63.01-.1-.23-.35-.33-.34-5.83.79-4.38-4.47-6.08-8.01M516.96,648c-1.75-.44-3.5-.89-5.38-1.37-4.15,5.93-4.6,8.31-.76,10.95,2.97,2.04,3.93,4.14,3.8,7.61-.14,3.61-.37,6.53-4.77,7.18-.56.08-1.31,1.56-1.29,2.37.12,4.21.22,8.44.8,12.6.56,3.98,4.47,1.64,6.31,2.88,2.65,1.78,4.67,1.62,5.69-1.04,2-5.18,3.26-10.65,5.2-15.86,1.44-3.87-2.68-5.79-2.75-8.33-.19-6.5-3.67-11.46-6.85-16.99M499.55,683.51c-.85-1.17-1.7-2.33-2.55-3.5-1.5,1.23-4.22,2.39-4.29,3.7-.41,7.41-.45,14.86-.06,22.27.16,3.13,4.46,4.96,6.85,3.54,3.49-2.07,5.51-9.49,4.08-13.41-1.42-3.89-2.31-7.98-4.02-12.59Z"/>
  <path class="cls-1" d="M691.47,362.15c.82,0,2.04-.37,2.4.03,3.75,4.15,7.54,8.29,10.95,12.71,3.24,4.19,5.3,9.53,11.64,10.17.7.07,1.62.73,1.94,1.37,2.01,3.99,6.16,4.63,9.56,6.58,5.82,3.33,12.25,5.62,16.32,11.88,2.26,3.47,6.73,5.58,10.36,8.08,5.01,3.44,9.98,6.83,11.91,13.06.12.37.58.64.9.95,6.36,6.19,12.72,12.38,19.07,18.57.24.23.61.41.71.69,4.26,11.63,16.9,16.94,21.38,28.4.93,2.37,1.8,4.76,2.87,7.06,2.29,4.9,4.8,9.7,6.99,14.65.96,2.16,1.16,4.66,2.07,6.85,1.05,2.52,2.7,4.79,3.73,7.32,1.13,2.77,1.96,5.68,2.73,8.58,2.22,8.33,4.17,16.74,6.61,25.01.93,3.14,3.39,5.82,4.31,8.96,1.83,6.29,3.45,12.7,4.49,19.16,1.61,10.1,2.77,20.27,3.9,30.44.63,5.71,1.01,11.47,1.14,17.22.19,8.33.1,16.66.04,24.99-.12,15.85-3.62,31.09-7.88,46.27-3.12,11.09-5.32,22.44-8.14,33.62-1.84,7.3-3.35,14.82-6.37,21.63-2.38,5.36-5.01,10.71-7.67,15.96-3.15,6.23-7.59,11.81-11.45,17.69-.26.4-.55.9-.54,1.35.12,9.81-9.02,15.2-11.44,24.04-1.2,4.36-5.79,7.84-9.02,11.57-2,2.31-4.36,3.74-2.74,7.9,2.1,5.4-.41,9.2-5.82,11.69-2.86,1.31-5.64,2.8-8.77,4.36-.08,3.71-1.73,6.38-6.34,7.29-1.22.24-2.18,3.29-2.73,5.19-1.13,3.88-1.9,7.87-2.53,10.6-5.9-1.16-10.62-2.57-15.4-2.76-1.73-.07-3.62,2.75-5.35,4.35-1.25,1.15-2.51,2.33-3.49,3.7-4.73,6.57-12.67,8.32-19.04,12.29-7.76,4.82-16.73,7.69-25.16,11.42-.58.26-1.05.76-1.63,1.02-5.03,2.32-9.93,5.05-15.15,6.81-9.05,3.05-18.74,4.52-27.32,8.48-6.99,3.23-13.78,6.72-21.32,8.31-5.22,1.1-10.54,1.77-15.84,2.32-7.98.82-16.1.8-23.95,2.25-5.03.93-9.83,3.59-14.47,5.98-6.92,3.57-13.98,5.06-21.76,3.91-3.37-.5-6.89.06-10.34.23-.78.04-1.61.75-2.31.62-8.81-1.68-16.7,2.14-24.65,4.57-8.16,2.5-15.77.51-23.54-.75-1.42-.23-2.53-2.42-3.78-3.71,1.47-.68,2.9-1.83,4.42-1.97,5.73-.54,11.49-.87,17.24-1.04,4.07-.12,5.2-3.44,4.66-5.83-.7-3.12.67-4.47,2.67-4.6,8.42-.52,16.88-.58,25.32-.77.8-.02,2.08.02,2.34.48,3.03,5.29,7.39,1.8,10.91,1.36,4.48-.55,9.3-1.57,13.02-3.92,3.13-1.97,5.01-6.03,7.2-9.32,1.94-2.92,4.26-5.88,5.06-9.15.62-2.51,0-6.22-1.58-8.2-3.09-3.89-6-9.28-12.86-6.51-1.08.43-2.74-.59-2.93-.64,2.06-3.46,4.75-6.99,6.36-10.96,1.36-3.36,1.57-7.22,2.13-10.88,1.47-9.62,2.93-19.24,4.26-28.88.78-5.66,2.05-10.87,6.54-15.09,1.57-1.48,2.01-4.65,2.12-7.09.29-6.15.91-12.46-.14-18.43-.97-5.54-3.93-10.74-5.97-15.96,3.24-.65,7.55-6.62,7.23-10.36-1.09-13.04-2.11-26.09-2.96-39.15-.18-2.8-.25-5.2-3.4-6.29-.67-.23-1.26-1.06-1.63-1.76-3.53-6.8-7.66-13.66-7.75-21.38-.06-4.83,2.54-9.7,4.03-14.53.41-1.34.87-2.79,1.74-3.83,1.62-1.94,3.52-3.65,5.38-5.37.56-.51,1.53-.58,2.07-1.1,8.23-8.06,18.54-5.85,28.31-5.45,3.62.15,6.51,2.57,4.91,7.31,3.12-.68,6.26-.52,8.13-1.99,2-1.57,3.79-4.6,3.95-7.11.5-7.63.24-15.32.13-22.98-.02-1.18-.45-2.84-1.29-3.44-4.67-3.39-5.81-8.32-6.75-13.54-.27-1.47-1.54-3-2.76-4-3.48-2.87-3.3-7.86-.82-11.62,1.74-2.65,2.95-5.65,4.77-8.23,1.3-1.85,3.25-3.24,4.86-4.88.74-.75,1.26-1.75,2.06-2.42,2.27-1.91,4.39-4.27,7.02-5.44,6.68-2.97,13.61-5.38,20.43-8.04.54-.21,1.4-.56,1.46-.95.84-5.58,7.01-5.97,9.59-9.94,1.53-2.36,3.81-4.31,6-6.14,4.62-3.87,9.41-7.54,14.13-11.3.39-.31.89-.61,1.05-1.03,2.45-6.2,8.88-8.06,13.22-12.18,4.67-4.44,8.31-9.46,9.27-16.2.23-1.61,2.66-4.09,4.12-4.13,6.32-.15,11.42-2.02,14.83-7.59.2-.32.78-.51,1.2-.58.65-.1,1.32-.03,1.99-.03-.11,1.95-.09,3.81-.37,5.64-.16,1.05-.7,2.84-1.23,2.9-6.1.69-4.17,6.11-5.7,9.43-1.12,2.42-1.83,5.03-2.95,7.45-1.59,3.43-2.95,7.1-5.24,10.02-1.42,1.8-4.26,2.85-6.66,3.45-5.46,1.38-10.83,1.89-14.48,7.55-2.96,4.58-7.67,8.03-11.61,11.98-3.36,3.37-6.63,6.85-10.17,10.02-1.36,1.22-3.42,1.62-5.06,2.57-1.7.99-3.21,2.29-4.91,3.27-2.75,1.59-5.67,2.88-8.34,4.58-1.4.89-2.41,2.39-3.6,3.61,1.36,1.17,2.55,2.93,4.12,3.39,2.76.8,5.76,1.08,8.66,1.09,30.99.07,61.99.09,92.98,0,5.08-.01,10.16-.71,15.25-.89,4.48-.16,8.99.25,13.43-.19,2.02-.2,3.9-1.86,5.17-2.52-2.03-7.21-3.87-13.58-5.6-19.99-1.55-5.73-3.07-11.46-4.4-17.24-.76-3.31-.52-6.94-1.75-10.02-3.3-8.29-7.09-16.39-10.78-24.52-2.95-6.48-5.82-13.02-9.21-19.27-1.34-2.47-4.02-5.94-6.07-5.93-3.51.03-7.14,2.17-10.43,3.96-1.57.86-2.32,3.12-3.76,4.39-.79.69-2.66,1.22-3.29.77-.82-.58-1.57-2.54-1.18-3.33.95-1.91,2.68-3.42,3.89-5.23.93-1.38,2.14-2.93,2.21-4.45.43-8.99.42-18,.92-26.99.09-1.7,1.44-3.73,2.81-4.87,4.91-4.07,7.53-9.33,6.84-15.44-.66-5.87-2.86-11.22-6.9-16.15-4.08-4.97-8.2-9.7-13.12-13.83-2.83-2.38-5.74-4.89-7.81-7.89-2.75-4-4.19-8.94-7.14-12.74-3.46-4.45-4.77-9.87-11.1-13.2-7.15-3.76-15.77-5.33-21.63-11.64-.69-.74-2.3-1.17-3.33-.98-6.03,1.14-10.63-1.09-14.87-5.22-1.88-1.83-4.52-2.99-6.99-4.06-3.17-1.37-4.29-3.59-1.86-5.92,1.21-1.16,4.48-1.45,6.11-.67,4.56,2.2,8.46,6.42,13.17,7.5,5.76,1.32,8.11,4.68,10.1,9.86,3.07-3.44,10.24-.2,10.54-7.85,0-.37-.03-.28-.03-.28M775.93,710.05c.21-1.1.19-2.31.65-3.3,5.35-11.38,3.68-24.85,10.71-35.82.88-1.38.12-5.12-1.2-6.31-2.46-2.21-5.7-3.62-9.5-2.31-2.69.93-5.68,1.8-8.45,1.57-7.92-.65-15.76-2.29-23.68-2.77-8.28-.5-16.61-.11-24.92-.11-9.13,0-18.37-.83-27.37.25-7.87.95-15.01-1.14-22.48-2.13-8.08-1.07-16.24-1.7-24.38-2.04-5.32-.22-10.46,8.68-7.27,12.76,5.09,6.49,10.82,12.49,16.43,18.57,3.32,3.6,8.04,6.38,10.14,10.54,3.84,7.58,11.64,11.12,16.17,17.93,2.56,3.84,7.76,5.89,10.46,9.68,1.99,2.79,3.05,5.61,6.4,7.75,3.66,2.34,5.93,6.85,8.81,10.42,1.02,1.27,1.99,2.59,3.1,3.79,3.61,3.94,8.32,7.33,10.58,11.92,1.65,3.37,3.32,4.46,6.32,4.52,7.21.13,14.43.04,21.65.04l-.69-1.94c2.6-2.67,5.16-5.38,7.82-8,1.28-1.26,3.28-2.07,4-3.55,3.6-7.46,6.43-15.32,10.43-22.55,3.2-5.78,5.5-11.59,6.26-18.92M670.57,834.41c7.8-1.27,11.83-7.67,16.84-12.65.74-.73.76-3.51.04-4.15-3.25-2.9-4.42-8.24-9.64-8.81-4.03-.44-8.08-.64-12.13-.81-8.88-.38-17.78-.48-26.65-1.09-3.33-.23-7.72-.21-6.97-5.21-7.37-1.15-14.55-2.28-21.73-3.4-.03-.74-.07-1.47-.1-2.21,1.81-.7,3.61-1.95,5.42-1.97,3.39-.04,6.9.25,10.17,1.11,3.86,1.02,9.13.51,9.45,6.87.04.69,2.36,1.82,3.62,1.8,4.05-.06,8.1-.87,12.14-.82,7.39.09,14.77.54,22.15.94,3.98.21,5.72-2.97,6.02-5.54.28-2.39-.4-5.32-4.36-6.82-3.79-1.44-6.74-5.41-9.71-8.59-4.14-4.43-7.57-9.59-12.02-13.63-3.49-3.17-8.12-5.06-12.14-7.68-.87-.56-1.72-1.72-1.87-2.71-.98-6.31-7.45-6.95-10.85-10.73-1.57-1.74-3.85-3.19-4.63-5.23-2.2-5.78-5.14-10.5-11.58-12.13-.87-.22-1.85-.78-2.37-1.49-5.21-7-13.84-8.45-21.21-4.1-3.89,2.3-3.97,5.33-3.84,9.09.21,5.78-.04,11.58-.07,17.38-.02,4.71,0,9.42,0,14.14,6.74-.32,12.72-.61,19.58-.93-.8,2.32-1.51,4.01-1.97,5.76-.59,2.24-2.12,5.82-1.26,6.58,4.47,3.97,4.75,9.64,7.35,14.2-3,.43-5.83,1.66-8.06.96-4.07-1.28-3.82.69-4.92,3.57-2,5.23-5.31,9.95-8,14.92-1.02,1.87-2.52,3.81-2.63,5.78-.35,5.98-.41,12-.05,17.98.42,6.94.84,13.97,2.39,20.7.62,2.69,4,6.29,6.56,6.68,6.45,1,13.13.43,19.1-3.16,2.03-1.22,4.31-2.01,6.47-3.03,6.77-3.2,14.5-2.45,21.32-6.73,9.23-5.78,19.66-9.63,30.15-14.86M691.5,798.59c.01,8.19.19,8.44,8.69,11.41,2.6.91,4.06,1.85,3.55,5.39-.42,2.9.42,6.7,2.13,9.05,2.89,3.96,6.96,7.05,10.47,10.57,1.44,1.45,3.69,2.97,3.87,4.64.73,6.7,7.81,8.76,9.89,14.36.17.46,1.01.76,1.6.98,4.56,1.66,9.21,4,13.96.98,4.73-3.01,11.97-5.66,13.13-9.84,1.84-6.64,7.36-8.9,10.84-13.1,5.25-6.35,6.9-11.23,1.87-17.63-.95-1.21-1.5-2.81-1.96-4.31-1.74-5.66-2.55-11.78-5.27-16.89-2.39-4.49-3.57-8.8-3.81-13.71-.38-7.83-4.57-11.42-12.08-10.4-3.17.43-6.32,1.22-9.36,2.23-1.25.41-3.27.23-2.86,3.31.34,2.59-1.6,5.49-2.66,8.62-1.38-2.13-2.37-5.51-4.07-5.91-4.21-1-7.64-2.35-9.64-6.39-.22-.45-1.08-.88-1.62-.85-4.07.23-8.13.57-12.2.89-1.85.14-3.7.32-5.54.48-7.82.71-11.68-6.02-16.27-10-7.24-6.28-12.69-14.65-18.83-22.18-.75-.92-.88-2.48-1.74-3.17-6.6-5.3-20.35-.29-20.76,8.01-.18,3.49-3.02,8.92,3.22,11.09,4,1.39,6.65,3.89,5.49,8.81,5.23-.3,7.79,1.87,7.31,5.64,3.01,1.57,5.36,2.7,7.61,3.99,1.8,1.03,3.6,2.11,5.19,3.43,2.06,1.71,5.46,3.6,5.54,5.54.17,4.03,3.06,4.3,5.26,5.29,2.38,1.08,5.13,1.33,7.83,1.97.77-3.59,1.27-7.11,2.38-10.43.36-1.07,2.65-2.5,3.44-2.19,1.29.5,3.14,2.62,2.88,3.49-.86,2.85-2.61,5.41-3.92,8.13-1.25,2.59-2.37,5.24-3.55,8.75M612.95,717.05c.45.47,1.27.93,1.3,1.43.22,4.12-.41,8.62,5.54,9.45.35.05.58,1.73.69,2.67.17,1.41.18,2.85.26,4.27.34-.43.69-.86,1.03-1.29,3.32,1.7,6.56,3.62,10.02,4.97,1.18.46,3.58,0,4.24-.91,1.27-1.72,2.43-4.1,2.35-6.15-.4-10.64-1.07-21.28-2-31.89-.16-1.82-1.99-3.5-3.05-5.24-1.62,1.35-3.34,2.6-4.84,4.07-1.31,1.28-2.39,2.8-4.2,4.97-1.54-8.55-2.8-15.57-4.02-22.37-7.63.24-5.94,4.44-6.18,8.43-.2,3.25-1.96,6.82-4.05,9.43-3.03,3.78-7.32,6.55-10.44,10.28-2.37,2.83-4.62,3.55-8,2.55-1.55-.46-3.48-.49-4.96.03-.69.24-1.41,2.81-.94,3.41.98,1.26,2.68,2.03,4.19,2.82,4.86,2.54,9.76-.03,14.64-.04,2.54,0,5.07-.6,8.44-.89M622.46,625.72c.39,2.22.1,4.93,1.3,6.56,3.14,4.27,6.93,8.07,10.61,12.22-.34.25.24.05.4-.32,2.82-6.76,6.33-13.36,8.09-20.39,1.08-4.28.18-9.47-1.18-13.83-1.11-3.55-3.74-7.13-6.71-9.35-1.27-.95-5.26,1.21-7.71,2.52-1.84.98-3.58,2.63-4.7,4.4-3.57,5.62-1.88,11.58-.11,18.2M597.68,703.97c4.06-2.51,2.94-9.29,8.63-10.55.19-.04.14-1.24.19-1.9.52-6.82-2.15-10.37-9.64-13.55-1.68-.72-2.89-2.51-4.38-3.71-1.42-1.15-2.87-2.89-4.44-3.04-1.39-.13-4.21,1.56-4.22,2.46-.02,4.2-3.68,3.76-5.69,5.43-1.62,1.35-3.44,3.69-3.39,5.54.07,2.79.86,6.65,2.8,8.1,4.84,3.6,12.56,2.7,15.38,9.9.33.84,2.6.92,4.76,1.32M589.81,787c1.66-1.25,3.32-2.49,4.98-3.74-1.54-1.09-3.03-2.94-4.62-3.03-1.49-.08-3.99,1.42-4.41,2.74-.57,1.79.15,4.3,4.06,4.03Z"/>
  <path class="cls-1" d="M705.45,329.93h-13.41c.7-2.21.72-4.96,1.96-5.73,5.73-3.56,5.1-9.17,5.49-14.53.29-4.07,1.2-8.21.67-12.17-.41-3-2.48-5.86-4.13-8.6-1.64-2.72-3.69-5.19-5.55-7.78-.18-.25-.16-.81-.34-.87-5.53-1.65-6.69-5.89-6.58-10.93,0-.39-.34-.96-.69-1.16-3.78-2.22-14,1.89-15.02,6.13-.28,1.17.02,2.51.21,3.75.41,2.66,1.22,5.3,1.33,7.97.22,4.99.1,9.99.05,14.98-.02,2.31.3,4.8-.44,6.88-1.67,4.66-.54,8.71.71,13.27.86,3.14,1.18,5.43,3.78,8.12,4.24,4.38,8.88,4.23,14.17,4.84-1.63.62-3.22,1.36-4.89,1.83-4.47,1.26-5.18,4.04-3.66,8.46,1.94,5.61,7.04,7.71,10.57,11.51,1.1,1.18.79,3.68,1.45,5.91.33.33.35.24.39.23-.08-.13-.2-.37-.31-.36q-8.4.73-8.97-8.31c-7.72-2.69-15.14-5.55-16-15.62-.18-2.12-1.35-5.19-5.35-5.11-1,.02-3.46-5.67-2.93-6.14,6.36-5.69,4.29-13.11,4.41-19.91.13-7.39-.7-14.79-.83-22.19-.06-3.2,1-6.44.83-9.62-.39-7.33-1.14-14.64-1.97-21.93-.15-1.27-1.15-3.01-2.24-3.53-11.35-5.38-18.39-15.69-27.57-23.53-1.88-1.61-5.51-3.14-7.27-2.34-1.67.75-2.72,4.59-2.73,7.08-.18,27.82-.24,55.64.01,83.46.04,4.46,1.78,8.91,2.95,14.39-.71.6-2.56,2.15-4.13,3.48-6.97-3.3-3.78-9.1-3.87-13.93-.07-4.05.8-8.1.85-12.16.14-10.97.19-21.94.03-32.91-.19-12.89-.63-25.78-.97-38.67-.09-3.29-.29-6.57-.25-9.86.06-6.08-5.76-7.47-9.15-11.25,1.61-2.37,3.45-4.47,4.59-6.9,1.27-2.7,2.67-5.7,2.7-8.58.21-24.32.18-48.65.09-72.97-.03-8.04,4.07-13.66,13.11-13.64,11.66.02,23.33-.17,34.98.2,1.69.05,4.6,2.62,4.74,4.21,1.05,11.96,1.73,23.96,2.12,35.95.18,5.4-.57,10.83-.92,16.25-.25,3.99,1.64,6.35,4.38,7.16,5.93-7.25,11.51-14.05,17.05-20.88.59-.73,1.25-1.59,1.38-2.47,1.25-8.42,6.54-14.28,12.09-20.18,4.8-5.09,9-10.74,13.49-16.12,3.15-3.78,7.56-3.33,11.81-3.44,3.75-.09,7.51-.31,11.26-.45,2.81-.1,5.63-.31,8.44-.22,7.75.25,15.51.52,23.24,1.04,2.63.18,5.21,1.11,7.81,1.69-.68,2.9-.57,6.37-2.19,8.6-8.5,11.71-17.48,23.06-26.2,34.61-5.28,7-10.39,14.12-15.57,21.19-4.02,5.49-8.55,10.69-11.92,16.55-2.8,4.88-4.27,10.66-9.26,13.89-3.4,2.2-4.4,5.07-3.73,8.64.36,1.94,1.03,4.14,2.31,5.53,3.86,4.2,7.25,8.28,9.32,13.99,1.8,4.97,6.4,8.94,9.87,13.28,6.94,8.69,13.92,17.34,20.94,25.96,6.2,7.61,12.54,15.1,18.7,22.75,2.92,3.63,5.48,7.54,8.32,11.23,3.71,4.83,7.61,9.52,11.26,14.4.78,1.04,1.27,2.74,1.06,4-.75,4.41-1.82,8.77-2.85,13.13-.63,2.64-2.1,3.98-4.72,2.15-3.82-2.67-7.5-5.54-11.32-8.21-1-.7-2.31-1.45-3.43-1.38-6.78.38-11.59-3.35-16.45-7.37.36-.47.6-.85.9-1.18,3.42-3.74,4.69-6.57-.85-10.32-4.65-3.14-7.61-8.68-11.95-12.44-5.05-4.37-9.6-9.91-16.51-11.32-2.75-.56-6.11.27-8.81,1.4-3.83,1.61-3.48,5.87.25,9.81,1.03,1.08,1.53,2.66,2.28,4.01-.4.3-.81.6-1.21.91-.5-.14-.99-.33-1.5-.4-10.95-1.43-11.3,2.99-10.48,12.27.29,3.27.54,6.54.77,10.19-.04.38,0,.29,0,.29M689.43,270.39c4.06,5.14,8.12,10.27,12.15,15.36,2.97-1.01,6.09-2.07,9.45-3.22-4.36-6.37-7.83-12.2-12.06-17.41-4.35-5.35-7.48-12.65-16.21-12.5-1.31.02-2.64-.29-3.95-.44,0,2.55-.99,5.8.22,7.5,2.7,3.81,6.5,6.86,10.42,10.71Z"/>
  <path class="cls-1" d="M550.74,579.4c1.06-2.55,2.32-4.69,2.69-6.97,1.2-7.49,2.05-15.04,3.11-22.55.13-.89.61-2.33,1.19-2.47,6.32-1.57,5.34-7.76,7.44-11.85,5.56-10.78,4.82-22.25,3.55-33.96-.78-7.13.55-14.47.75-21.73.15-5.51-3.24-7.71-8.73-7.1-6.17.7-12.55,1.99-18.57-.93-.96-.47-1.66-1.47-2.21-3.6,5.37.25,10.78.18,16.1.81,9.48,1.11,14.09-3.71,13.82-13.27-.51-18.12-.39-36.27-.32-54.4.02-5.21,4.84-9.3,11.34-9.25,4.64.03,9.28,1.26,13.91,1.99.3.05.67.26.84.51,4.96,7.18,13.86,3.6,20.06,7.37.98.59,2.02,1.09,3.03,1.63-.14.69-.29,1.38-.43,2.07-7.37-.56-14.75-1.05-22.11-1.78-.96-.1-1.87-1.4-2.66-2.27-1.04-1.15-2.05-3.52-2.88-3.43-2.81.29-6.24.64-8.16,2.38-5.69,5.15-6.16,12.39-5.97,19.55.23,8.4.73,16.8.9,25.2.04,2.05-.59,4.16-1.15,6.17-.78,2.81-2.02,5.25,1.38,7.69,2.65,1.91,4.5,2.25,7.62,1.14,2.06-.74,4.9.69,7.39,1.15.04.54.09,1.08.13,1.62-1.04.94-2.27,2.84-3.08,2.68-7.63-1.57-9.69,5.04-12.15,9.26-1.9,3.27-.82,8.29-1.04,12.53-.26,5.27-.04,10.6-.86,15.78-.9,5.76.91,13.06,5.46,17.52,1.84-4.46,3.97-8.49,9.87-7.98.77.07,1.72-1.14,2.48-1.87.58-.55.91-1.78,1.48-1.86,7.09-.99,7.99-9.05,13.01-11.57,4.57-2.29,7.2-6.28,11.04-9.08,2.36-1.73,3.08-5.73,4.46-8.75.45-.99.32-2.53,1.03-3.08,4.38-3.36,8.78-6.73,13.49-9.58,1.43-.87,3.83-.13,5.78-.13.43-3.14,5.23-6.36,8.4-5.8,3.82.67,7.68,1.86,11.47,1.69,5.45-.24,10.25.93,14.92,3.56.81.46,2.86.13,3.4-.56,3.68-4.72,7.17-9.59,10.61-14.49,1.59-2.27,1.42-11.32-.02-13.15-.28-.35-.45-1.05-.74-1.09-7.64-1.08-14.91-5.17-22.96-2.85-2,.58-3.96,1.32-6,1.69-3.12.58-6.28.11-8.21,4.04-.84,1.71-4.51,1.98-6.84,3.01-4.16,1.85-8.15,4.21-12.46,5.56-4.23,1.33-8.77,1.73-13.19,2.38-1.19.17-2.54-.02-3.68-.44-1.07-.39-1.96-1.29-2.93-1.97.81-.84,1.5-2.23,2.46-2.45,6.71-1.55,13.41-3.03,19.16-7.18,1.15-.83,2.65-1.95,3.85-1.8,9.34,1.18,14.07-7.13,21.3-10.2.71-.3,1.43-2.51,1.05-3.06-.85-1.21-2.29-2.39-3.7-2.75-2.66-.68-5.58-.39-8.16-1.23-1.86-.61-4.1-2.06-4.83-3.72-1.74-3.95-4.23-4.64-8.09-3.72-6.37,1.53-12.64.66-18.68-1.75-.63-.25-1.03-1.12-2.32-2.61,10.08,0,19.1-.14,28.11.14,1.51.05,2.89,2.03,4.46,2.86,2.35,1.23,4.76,2.37,7.25,3.29,6.71,2.49,13.31,5.96,20.26,6.96,9.1,1.3,17.32,4.71,25.69,7.85,1.76.66,2.96,3.17,4.13,5.01,1.39,2.2,2.47,4.59,3.55,6.65-3.34.06-4.84,3.14-5.97,7.03-1.47,5.07-9.7,11.07-14.48,11.29-.38,2.16-.14,4.69-1.27,6.13-1.08,1.37-3.6,1.62-5.26,2.26-3.38,6.73,3.78,9.64,5.23,14.69,10.06-.74,16.25,5,16.25,15.07,0,5.53,0,11.05,0,16.58-.88.12-1.75.25-2.63.37-.79-3.02-1.71-6.01-2.35-9.06-1.56-7.45-2.96-14.69-11.89-17.46-2.06-.64-2.99-4.56-4.77-6.7-.83-.99-2.54-2-3.68-1.83-2.65.41-5.2,1.51-7.79,2.35-2.35.76-4.16,1.44-5.59,4.26-1.97,3.86-5.16,8.08-8.91,9.85-6.85,3.23-10.37,8.97-14.5,14.51-.77,1.04-2.59,1.23-3.59,2.17-1.28,1.2-2.26,2.73-3.31,4.16-.66.89-1.06,2.02-1.85,2.76-3.38,3.18-6.92,6.21-10.27,9.42-.87.84-1.11,2.32-1.95,3.21-1.39,1.49-3.03,2.76-4.58,4.1-1.09.93-2.98,1.67-3.19,2.75-.76,3.99-3.42,4.21-6.57,4.2-1.03,0-2.05.69-3.08,1.06,1.7,4.39-2.46,3.77-4.36,4.91-1.9,1.14-4.75,1.34-3.39,4.75.06.15-.34.54-.59.76-4.95,4.49-9.85,9.04-14.93,13.38-.58.49-2.38.16-3.23-.38-4.63-2.97-8.68-6.31-9.15-12.53-.14-1.9-1.58-3.86-2.86-5.44-.67-.83-2.58-1.53-3.41-1.15-1.1.5-2.33,2.09-2.39,3.26-.27,5.94.2,11.94-.35,17.85-.37,3.9,1.76,10.02-6.05,9.81-.57-.02-1.56,2.62-1.76,4.1-1,7.39-1.8,14.82-2.78,23.08-3.55-9.48-2.72-18.09.96-27.01M601.82,543.15c5.02-5.68,9.93-11.45,15.1-16.99,2.68-2.87,7.03-4.37,6.78-9.44-.03-.62,1.56-1.43,2.5-1.97,4.86-2.82,9.34-5.97,12.17-11.09.86-1.57,2.4-3,3.96-3.91,4.78-2.78,9-5.93,11.27-11.24.7-1.65,1.85-4,3.21-4.33,8.4-2.04,9.14-10.43,14.05-15.2-7.61-8.13-15.62-.11-22.68-1.23-2.61,2.56-5.55,4.39-8.46,6.26-1.42.92-3.19,1.64-4.11,2.93-2.84,4.03-5.19,8.42-8.1,12.39-.89,1.21-2.99,1.54-4.75,2.37-.38,3.11-1.31,5.88-5.89,4.49-.5-.15-1.54,1.57-2.38,2.39-4.22,4.11-8.41,8.25-12.72,12.27-.46.43-1.71-.11-2.41.21-1.27.59-3.29,1.35-3.44,2.29-.73,4.56-4.57,5.6-7.6,7.74-3.24,2.29-6.77,4.63-9.01,7.78-5.14,7.23-3.99,15.78-3.31,23.99.1,1.15,2.36,2.12,3.63,3.17.11.09,13.41-4.06,13.45-4.19.15-.62.14-1.32.44-1.86.77-1.37,1.41-3.05,2.61-3.9,1.54-1.09,3.56-1.5,5.68-2.92Z"/>
  <path class="cls-1" d="M484.28,399c4.38-.33,8.34-.41,12.2-1.07,3.91-.67,7.75-1.82,11.56-2.96,7.67-2.28,13.19.36,17.07,7.1.39.68,1.01,1.22,1.5,1.81-5.4,5.41-4.54,12.1-3.9,18.36.76,7.56,1.63,15.02-.12,22.52-1.51,6.46,2.22,13.24,10.02,18.24.54.35,1.06.73,2,1.38-2.75,1.86-5.27,3.57-7.09,4.8-2.72-1.21-5.2-2.18-7.54-3.41-2.08-1.1-3.81-2.08-2.82-5.44.94-3.21.19-6.88.35-10.34.61-12.97,1.26-25.94,1.95-38.9.13-2.44-4.44-7.08-7.78-7.02-6.9.13-13.79.69-20.68,1.15-2.11.14-4.19.57-6.3.75-4.71.4-9.11.69-13.43,3.75-3.27,2.32-8.18,2.5-12.44,3.18-2.99.48-4.94.91-6.77,4.2-1.29,2.31-6.08,3.14-9.46,3.66-2.66.41-3.9,1.13-5.4,3.52-2.48,3.96-7,3.98-11.77,3.7.88-1.48,1.45-3.4,2.11-3.43,8.93-.4,11.94-11.33,20.85-11.61.29,0,.78-.21.82-.39,1.51-7.17,7.78-4.31,11.97-5.41,3.1-.82,5.91-.24,7.72-4.33.93-2.1,5.41-2.9,8.44-3.72,2.02-.55,4.3-.1,6.93-.11Z"/>
  <path class="cls-1" d="M887.27,491.56c-2.43,4.94-5.57,9.3-6.68,14.12-1.66,7.22-6.78,5.11-11.08,5.15-.93,0-2.95-2.71-2.66-3.31,3.66-7.63,1.25-14.75-1.31-21.93-.21-.59-.03-1.32-.03-1.97,6.86-1.37,8.04-.16,6.24,6.68-1,3.81,1.28,5.83,4.16,6.55,2.85.72,4.62-.72,4.71-4.34.15-5.87,1.03-11.72,1.62-17.79-8.87,1.2-7.3-8.54-11.93-9.68,1.14-6.11,2.35-11.56,3.04-17.07.15-1.2-1.26-3.42-2.42-3.82-4.22-1.47-5.23-4.09-3.51-8.95-5.55-.24-10.72-.47-16.43-.72,2.55-6.46,6.49-3.05,9.61-2.83,2.04.14,4.12.69,6.03,1.44,1.41.55,2.62,1.67,3.85,2.61.32.25.32,1.12.6,1.19,9.41,2.57,7.6,11.09,9.43,17.67.42,1.53.6,3.44,1.62,4.44,3.73,3.66,4.15,8.25,4.37,12.99.3,6.4.64,12.79.77,19.57Z"/>
  <path class="cls-1" d="M494.71,506.71c-3.64-6.63-7.44-12.8-10.2-19.42-1.07-2.57-.58-6.54.72-9.09.79-1.54,4.5-1.59,6.9-2.32,3.8-1.14,7.7-2.02,11.36-3.52,2.36-.96,4.19-3.25,6.55-4.14,1.59-.59,4.64-.42,5.34.59.88,1.26.81,4.68-.21,5.54-7.79,6.55-7.72,15.36-7.69,24.25.02,6.16.04,12.32-.02,18.48-.02,1.54-.35,3.08-.72,6.15-4.51-6.22-8.15-11.24-12.04-16.53M502.46,483.44c-2.65-2.16-5.44-3.98-8.66-1.17-2.4,2.1-1.74,8.85,1.79,14.74,3.09-3.38,6.05-6.41,8.68-9.7.37-.47-.81-2.18-1.81-3.87Z"/>
  <path class="cls-1" d="M842.5,496.98c-2.12-6.64-4.13-12.67-10.7-16.21-2.18-1.17-2.81-5.22-4.39-8.44-5.52-.88-6.13-1.91-3.77-8.89,1.55,4.38,2.89,8.58,8.43,7.84.4-.05,1.25.8,1.34,1.32.91,5.12,4.65,4.66,8.35,4.3,2.12-7.87,1.41-10.65-4.64-13.09,3.67-1.17,6.2-2.49,8.82-2.7,5.05-.41,6.55,2.45,4.65,6.96-1.22,2.89-1.68,6.18-2.02,9.34-.29,2.8.73,4.96,4.14,5.4,4.27.56,4.62,3.72,3.42,6.87-1.97,5.23-4.34,10.31-6.71,15.38-.4.85-1.67,1.8-2.52,1.77-.72-.02-1.7-1.25-2.05-2.15-.93-2.37-1.59-4.85-2.35-7.71Z"/>
  <path class="cls-1" d="M402.2,802.27c-5.36-3.07-10.58-5.65-15.53-8.68-3.08-1.88-1.46-4.85.29-6.24,4.39-3.47,9.33-6.24,13.88-9.53,1.2-.87,1.58-2.8,2.71-3.85,1.31-1.22,3.56-3.13,4.45-2.72,1.55.73,3.42,3.08,3.32,4.63-.69,10.01-1.87,19.99-4.19,30.95-1.56-1.42-3.12-2.85-4.94-4.57Z"/>
  <path class="cls-1" d="M388.62,922.02c-5.03,8.45-13.58,11.98-21.63,15.32-2.86,1.18-3.87,1.82-5.23,4.37-.73,1.36-4.6,1.05-7.05,1.5-.08-.43-.17-.86-.25-1.28,1.69-1.02,3.38-2.04,6.07-3.67-2.57-.29-4.01-.46-5.75-.66,0-.94,0-2.12,0-1.94,6.04-2.37,11.72-4.12,16.91-6.82,3.2-1.67,2.54-4.77-1.05-7.18,5.07-4.84,9.99-9.81,15.24-14.41,2.39-2.09,3.47-6.84,8.37-4.9,1.62,3.2,3.26,6.43,4.9,9.65-.31.41-.63.81-.94,1.22-2.63-.53-5.27-1.06-8.37-1.69,1,3.73,6.04,7.88-1.23,10.5Z"/>
  <path class="cls-1" d="M447.99,352.19c4.25,3.12,4.64,6.17,1.92,9.99-.85,1.2-1.2,2.75-1.96,4.6,8.14,2.4,15.6,4.61,23.13,6.83-4.22.47-8.42.65-12.5,1.44-7.92,1.54-13.67-2.27-17.87-7.95-3.17-4.29-5.5-3.35-8.83-1.02-4.06,2.84-5.03,2.69-9.98-1.25,7.45-5.3,10.8-13.04,12.14-22.55,5.17,3.68,5.61,12.28,13.96,9.91Z"/>
  <path class="cls-1" d="M248.5,883.11c-.24,3.83-.47,7.21-.71,10.59-4.73-7.71-4.05-15.18-.14-22.78,1.69-3.29,2.6-7,3.85-10.52.63-1.77,1.23-3.55,2.02-5.85,5.76,5.18.83,12.18,4.3,17.67,1.02-1.33,1.75-2.3,2.48-3.26,3.92,3.07,3.72,18.73-.83,23.3,0-3.76,0-6.89,0-10.02,0-.83.29-1.87-.1-2.45-2.35-3.58-4.85-7.05-7.53-10.89-1.14,4.72-2.23,9.24-3.33,14.21Z"/>
  <path class="cls-1" d="M813.5,436.19c-.34-4.23-.56-7.99-1.09-11.71-.13-.89-1.14-1.8-1.95-2.42-2.45-1.86-5.01-3.58-8.46-6.01,6.03-2.32,9.47-2.2,10.58,3.34.09.42.59,1.06.94,1.09,7.06.7,4.82,6.12,4.91,10.04.21,9.78.07,19.57.07,29.35-.57.2-1.14.41-1.7.61-.77-1.53-2.06-3.01-2.2-4.6-.56-6.39-.76-12.81-1.09-19.69Z"/>
  <path class="cls-1" d="M826.51,392.65c4.45-.05,6.96,1.35,7.17,6.39.07,1.78,1.91,3.92,3.52,5.11,5.69,4.23,7.51,6.32,1.24,13.42-1.42-3.34-1.93-7.21-4.13-9.09-3.79-3.24-4.41-8.22-7.73-11.43-3.08-2.97-6.66-5.43-9.76-8.38-.97-.92-1.1-2.73-1.84-4.73,3.91.98,6.95,1.75,10.11,2.54.43,1.75.91,3.75,1.42,6.16Z"/>
  <path class="cls-1" d="M762.65,378.63c2.03,4.94,6.58,6.12,10.28,8.39.49.3.46,1.46.9,3.04-4.55-.59-8.65.39-11.6-4.38-1.19-1.93-4.5-2.98-7.04-3.57-7.05-1.65-11.77-7.25-11.62-14.89,2.14.88,5.06,1.14,6.01,2.64,3.08,4.9,7.25,7.6,13.07,8.77Z"/>
  <path class="cls-1" d="M538.5,251.35c1.03-1.41,2.61-3.38,2.98-3.18,1.52.83,3.73,2.32,3.76,3.61.16,6.21-.31,12.44-.55,18.66-.11,2.81.09,5.78-4,5.9-2.03.06-4.05.2-6.36-.46,6.32-4.9,5.36-11.21,4.97-17.32-.15-2.27-.53-4.51-.8-7.21Z"/>
  <path class="cls-1" d="M543.39,879.99c6.84,2.6-.42,5.33.52,8.3-3.79-4.31-11.74-1.8-13.52-9.1-.22-.91-2.32-1.25-3.33-2.11-.99-.84-2.09-1.89-2.42-3.06-.22-.76.84-2.69,1.35-2.7,1.47-.03,3.84.22,4.29,1.13,2.68,5.37,7.98,5.88,13.12,7.54Z"/>
  <path class="cls-1" d="M285.14,835.87c2.15-1.48,4.11-2.59,5.84-3.97,1.3-1.04,3.31-2.46,3.27-3.66-.14-4.07,2.98-3.91,5.13-4.06,1.59-.11,3.29,1.46,4.93,2.28-.89,1.64-1.42,3.72-2.75,4.84-3.15,2.65-6.47,5.27-10.13,7.1-3.48,1.74-5.18.76-6.3-2.54Z"/>
  <path class="cls-1" d="M705.38,330.03c6.97-1.79,9.12,4.87,13.43,7.77,1.6,1.07,3.22,2.11,4.81,3.2.66.46,1.26,1.02,1.88,1.54-.61.61-1.21,1.23-1.83,1.84-.12.12-.27.31-.39.29-2.64-.42-7.11-.15-7.6-1.42-2.03-5.28-12.68-3.97-9.88-13.01-.35-.3-.38-.22-.42-.21Z"/>
  <path class="cls-1" d="M805.51,860.59c-.6-3.39.25-7.11-4.47-7.9-.73-.12-1.24-2.71-1.49-4.21-.34-2.02.04-4.21-3.38-2.9-1.17.45-3.67-.1-4.17-.99-.64-1.12.14-3.05.31-4.63.55-.24,1.1-.47,1.65-.71,4.81,4.39,9.79,8.61,14.39,13.21,3.32,3.32,3.01,8.86-.25,12.34-.87-1.28-1.72-2.54-2.58-4.2Z"/>
  <path class="cls-1" d="M496.21,915.02c-3.31-.38-6.31-.33-8.98-1.25-1.88-.64-3.48-2.65-.05-3.97,6.64-2.55,14.27-2.21,20.14,2.84.27.23.14.93.3,2.39-3.74,0-7.35,0-11.41-.02Z"/>
  <path class="cls-1" d="M294.28,817.72c-2.16,2.18-3.83,4.41-6.03,5.86-1.3.86-3.46.76-5.14.5-.66-.1-1.65-2.58-1.5-2.7,1.24-.96,2.76-1.55,4.11-2.39,1.63-1.02,4.1-1.86,4.6-3.33,1.92-5.65,7.11-7.1,12.65-2.52-2.96,1.51-5.69,2.92-8.7,4.59Z"/>
  <path class="cls-1" d="M605.11,338.26c4.7,1.49,9.02,2.76,13.35,4.03-.13.54-.26,1.08-.39,1.62-7.79,2.53-15.18.54-23.31-2.02,2.96-4.01,6.46-3.96,10.35-3.62Z"/>
  <path class="cls-1" d="M818.88,898.25c-1.49.75-2.62,1.29-3.73,1.82-.28-.45-.65-.79-.58-.96,2.4-6.41-.36-12.51-.9-18.75-.21-2.34,1.33-4.82,2.07-7.24.43.11.85.22,1.28.34.5,5.36.92,10.73,1.55,16.08.18,1.54,1.24,2.97,1.4,4.51.13,1.3-.46,2.67-1.07,4.22Z"/>
  <path class="cls-1" d="M783.52,396c1.84,1.45,3.71,2.64,4.62,4.34.73,1.39.3,3.39.38,5.12-1.86-.52-3.97-.68-5.5-1.69-.82-.55-.66-2.57-1.15-4.95-2.5-.79-8.98-.43-4.73-8.75,2.28,2.24,4.14,4.07,6.38,5.93Z"/>
  <path class="cls-1" d="M598.26,457.74c-1.97.54-3.67.8-5.37,1.07.54-2.58.22-6.16,1.8-7.5,2.58-2.19,6.37-3.02,9.74-4.18.5-.17,1.45.99,3.46,2.46-5.87.51-8.48,3.4-9.63,8.15Z"/>
  <path class="cls-1" d="M637.73,348c3.48.42,6.51.84,9.54,1.27-.06.58-.12,1.16-.19,1.73-4.81,0-9.63.19-14.43-.05-4.73-.23-9.44-.9-14.17-1.37.02-.53.04-1.05.06-1.58,6.25,0,12.49,0,19.18,0Z"/>
  <path class="cls-1" d="M797.18,413c-3.89-.36-7.67-.39-6.46-5.71,11.67-.94,13.34-.3,13.71,5.72-2.3,0-4.57,0-7.26,0Z"/>
  <path class="cls-1" d="M271.88,837.7c1.5-4.4,3.32-8.54,5.14-12.69.42-.11.85-.21,1.27-.32.97,2.84,1.93,5.68,2.92,8.58-.8.67-1.75,1.47-2.7,2.26,1.22.52,2.44,1.04,3.67,1.55-.02.29-.05.58-.07.87-3.3,0-6.6,0-10.22-.26Z"/>
  <path class="cls-1" d="M802.48,360.32c.35,2.68.85,4.91.96,7.15.1,2.03-.23,4.07-.39,6.49-4.54-3.08-5.29-6.51-4.06-18.15,1.59,1.86,2.53,2.96,3.49,4.5Z"/>
  <path class="cls-1" d="M263.03,923.02c.53,3.08.79,5.91,1.08,9.03-7.36-1.28-8.08-4.3-3.52-14.37.98,2.31,1.57,3.7,2.44,5.35Z"/>
  <path class="cls-1" d="M321.42,967c-2.69-.35-4.96-.7-8.02-1.16-.15-.34-.72-1.63-1.3-2.91,1.54-.31,3.11-.97,4.62-.85,3.6.28,7.17.92,10.76,1.42.03.55.06,1.11.1,1.66-1.92.62-3.83,1.23-6.16,1.85Z"/>
  <path class="cls-1" d="M298.23,950c.82.23,1.24.45,1.66.67-2.25,1.96-14.59,2.45-16.62.5-.59-.57-.61-1.74-1.32-3.98,5.86,1.03,10.87,1.92,16.28,2.8Z"/>
  <path class="cls-1" d="M796.38,357.33c-2.46,1.45-4.47,1.85-4.91-1.68-.33-2.68-.87-5.33-1.29-7.91,4.58-2.04,5.56.93,6.23,3.77.41,1.71.07,3.6-.03,5.82Z"/>
  <path class="cls-1" d="M742.5,362.8c-.22,1.95-.45,3.47-.72,5.34-5.39-4.48-5.98-11.31-.67-14.38.51,3.13.95,5.87,1.39,9.04Z"/>
  <path class="cls-1" d="M409.39,151.95c2.53-.1,4.65-.2,6.77-.31.08.5.16.99.24,1.49-1.75.62-3.6,1.05-5.21,1.93-1.34.74-2.39,2.01-3.91,3.34-.41-.15-1.64-.58-3.97-1.41,2.12-.78,3.16-1.16,5.3-1.94-3.25-1.02-5.52-1.74-7.79-2.46.03-.41.07-.82.1-1.23,2.69.19,5.37.38,8.47.58Z"/>
  <path class="cls-1" d="M492.27,377.67c3.85-.14,7.38,0,10.9.16-5.72,4.99-10.81,4.9-15.04.69,1.5-.22,2.65-.39,4.13-.84Z"/>
  <path class="cls-1" d="M321.59,952h-7.99c.17-.37.48-1.83.92-1.87,5.91-.6,11.84-1.01,17.86-.81-2.62,4.54-6.9,1.83-10.79,2.68Z"/>
  <path class="cls-1" d="M777.32,894.68c3.47-.11,6.65.1,9.99.32v3.78c-3.21,0-6.34.14-9.43-.17-.4-.04-.57-2.36-.56-3.93Z"/>
  <path class="cls-1" d="M525.52,480c.38-1.19.78-1.97,1.46-3.29,1.54,12.38.74,20.31-2.97,21.47.61-4.88,1.23-9.34,1.71-13.81.14-1.3-.11-2.64-.2-4.38Z"/>
  <path class="cls-1" d="M267.74,956.4c2.37-4.41,5.54.06,8.1-1.18.11-.05,1.72,1.9,1.5,2.5-.35.95-1.69,2.2-2.56,2.16-2.71-.12-6.43,1.54-7.03-3.47Z"/>
  <path class="cls-1" d="M551.5,612.97c-.27,4.29-.53,8.17-.8,12.06-.72-.04-1.45-.08-2.17-.11v-14.81c.38-.13.77-.26,1.15-.39.6.95,1.21,1.9,1.82,3.26Z"/>
  <path class="cls-1" d="M728.48,319.13c-.46,1.55-.93,2.71-1.58,4.34-1.74-1.23-3.98-2.01-4.61-3.47-.66-1.54.22-3.74.43-5.66,1.48.62,3.06,1.07,4.38,1.93.69.45.92,1.62,1.37,2.86Z"/>
  <path class="cls-1" d="M772.37,883.6c.49,2.56.85,4.74,1.36,7.75-2.55-.65-4.43-1.13-6.4-1.63.68-3.58,1.25-6.62,2.05-10.85,1.5,2.27,2.18,3.31,2.98,4.73Z"/>
  <path class="cls-1" d="M728.59,350.98c-1.43-.91-2.47-1.8-4.1-3.21,2.61-.45,4.18-1.11,5.62-.89,1.96.3,3.93,1.09,5.67,2.06.49.27.19,1.95.25,2.98-1.75-.08-3.51-.11-5.26-.27-.6-.05-1.18-.43-2.16-.68Z"/>
  <path class="cls-1" d="M265.5,859.14c-.23-2.8.89-4.32,3.15-3.31,1.18.53,2.28,2.66,2.27,4.06,0,1.73-1.2,3.45-2.45,6.61-1.33-3.11-2.15-5.03-2.96-7.36Z"/>
  <path class="cls-1" d="M422.38,430.37c1.27.9,2.3,1.52,3.43,2.19-4.09,4.29-5.83,4.52-10.09.82,2.35-1.21,4.39-2.25,6.66-3.01Z"/>
  <path class="cls-1" d="M736.68,325.68c-.69,1.56-1.83,3.99-2.55,3.87-1.83-.3-3.48-1.74-5.2-2.73.58-.95.96-2.12,1.77-2.79,1.67-1.41,3.36-1.74,4.39.88.11.29.87.33,1.59.77Z"/>
  <path class="cls-1" d="M336.04,959.03c-.31-2.38-.31-4.5-.31-6.88,3.3-.46,5.35,1.31,5.48,4.15.04.92-3.15,1.99-5.17,2.72Z"/>
  <path class="cls-1" d="M272.51,842.8c-.77,1.33-1.63,3.11-2.31,3.04-1.93-.2-3.77-1.15-5.81-1.86,4.54-5.23,5.28-5.34,8.12-1.17Z"/>
  <path class="cls-1" d="M300.75,960c-1.31-1.17-3.09-2.57-2.86-3.45.36-1.37,2.08-2.38,3.22-3.55.79.84,2.29,1.73,2.23,2.49-.13,1.62,1.84,4.67-2.59,4.5Z"/>
  <path class="cls-1" d="M804.93,374.76c-.34-1.2-.34-2.19-.34-4.63,3.02,3.84,5.32,6.77,7.96,10.13-4.24,1.28-6.22.79-6.11-3.11.02-.71-.76-1.45-1.51-2.39Z"/>
  <path class="cls-1" d="M849.74,427.36c-1.46.35-3.56.79-3.79.32-.86-1.79-1.12-3.88-1.73-6.37,4.53.61,6.15,2.32,5.51,6.04Z"/>
  <path class="cls-1" d="M256.5,940.95c-1.1,1.27-2.21,2.13-3.31,2.99-.29-1.15-.78-2.3-.81-3.46-.05-1.77.2-3.56,1.56-5.81.86,1.96,1.71,3.92,2.57,6.29Z"/>
  <path class="cls-1" d="M245.51,933.46c.25-4.41.51-8.4.77-12.39.2-.05.4-.11.6-.16.43,2.46.91,4.92,1.29,7.39.2,1.31.24,2.64.36,3.95.09.97.19,1.94.29,2.92-1.1-.43-2.2-.86-3.31-1.71Z"/>
  <path class="cls-1" d="M267.15,937.26c-1.18-1.6-2.03-2.97-2.87-4.34.18-.39.36-.78.53-1.17,1.9.58,3.88,1.01,5.65,1.86.43.21.62,2.23.18,2.67-.74.72-2.07.84-3.49.98Z"/>
  <path class="cls-1" d="M277.11,940.23c1.08,1.56,1.81,2.92,2.55,4.29-1,.49-2.34,1.64-2.92,1.33-1.28-.68-2.17-2.08-3.23-3.19,1.09-.87,2.17-1.75,3.59-2.42Z"/>
  <path class="cls-1" d="M348.49,945.52c-.55,2.78,1.69,6.2-3.41,7.33.3-3.66.59-7.07.87-10.48.38,0,.75,0,1.13,0,.47.91.93,1.82,1.4,3.15Z"/>
  <path class="cls-1" d="M862.31,480.48c-3.71-2.71-3.84-6.22-1.88-10.01.48-.05.96-.1,1.43-.16.2,3.28.41,6.55.44,10.17Z"/>
  <path class="cls-1" d="M398.82,893.72c-3.37-1.43-2.66-3.72-1.65-5.72.3-.6,1.93-.62,2.96-.65.16,0,.62,1.45.47,2.14-.32,1.52-.94,2.98-1.78,4.23Z"/>
  <path class="cls-1" d="M796.22,903.01c2.23.82,2.67,2.41.6,2.69-2.34.33-4.87-.67-7.32-1.09.12-.77.23-1.55.35-2.32,1.99.24,3.98.47,6.37.72Z"/>
  <path class="cls-2" d="M510.9,247.15c3.83,4.39,4.67,9.18,2.7,14.21-2.3,5.86-2,10.71.92,16.88,2.64,5.58,1.72,13.13,1.31,19.74-.24,3.81-3.28,7.39-3.77,11.24-.49,3.87-.2,8.27,1.22,11.85,2.91,7.32.71,14.1-6.84,16.39-7.2,2.18-14.61,3.69-21.91,5.56-1.38.35-2.72.93-4.03,1.52-5.38,2.42-10.35,1.93-15.24-2.19,2.53-4.73,5.31-9.35,7.46-14.24.94-2.12.66-4.81.81-7.25.36-5.73.68-11.46.94-17.19.15-3.2-1.38-5.63-4.61-5.53-3.26.1-4.27,2.32-3.47,5.68.52,2.2.1,4.62.1,6.94.6.07,1.19.14,1.79.21.59-1.24,1.18-2.47,1.76-3.71.4.07.8.14,1.2.22-.4,1.83-.81,3.65-1.18,5.48-.37,1.81-.68,3.62-1.18,6.28-7.34,10.36-16.17,6.53-26.3-.85-2.13,3.67-4.28,7.39-6.5,11.23-1.28-1.65-2.78-4.12-4.82-6.01-1.13-1.05-3.22-1.65-4.79-1.51-3.66.32-7.26,1.62-10.9,1.66-1.5.02-3.01-2.2-4.21-3.15,2.59-3.74,4.79-6.91,6.97-10.09.45-.66.69-1.87,1.23-1.99,6.7-1.59,4.42-6.23,4.5-10.77.06-3.19,3.04-6.34,4.87-9.41.06-.1,1.98.65,2.79,1.3,3.88,3.15,3.98,2.78,7.55-.56,1.91-1.79,5.19-2.18,7.9-3.04,2.43-.78,4.95-1.28,7.38-2.05.73-.23,1.86-1.01,1.83-1.48-.06-.9-.59-2.08-1.32-2.58-6.65-4.51-12.57-10.19-20.58-12.55-1.29-.38-2.62-1.88-3.21-3.19-1.77-3.89-3.44-7.87-4.65-11.97-.97-3.26,2.41-6.15,6.98-6.2,7.67-.08,15.33,0,23-.03,5.01-.02,8.45-3.75,7.88-8.62-.6-5.13-1.85-10.24-1.88-15.36-.04-7.87.42-15.77,1.25-23.59.45-4.18,4.78-3.95,7.72-4.28,4.11-.47,7.14-1.71,9.73-5.23,3.28-4.47,8.09-3.2,13.06-1.54,1,4.91,2.64,10.17,3.03,15.51.53,7.25.48,14.59-.02,21.84-.42,6.11-1.4,12.26-2.98,18.18-1.26,4.74-3.95,9.08-5.68,13.72-1.06,2.83-1.6,5.88-2.18,8.87-.49,2.54-.92,5.13-.92,7.7,0,1.26,1.02,2.52,1.58,3.78,1.1-.72,2.96-1.27,3.17-2.19,2.05-9.01,7.48-16.45,11.11-24.71,1.95-4.43,5.79-2.71,9.43-2.9M483.15,282.9c.56-1.87,1.12-3.74,1.8-6.04-6.64.46-4.49,5.79-6.18,8.54q-11.51-1.8-22.17,2.4c3.56,2.5,6.86,5.09,10.42,7.26,3.16,1.92,6.17,1.62,8.47-1.77,2.28-3.35,4.71-6.59,7.66-10.39Z"/>
  <path class="cls-2" d="M380.53,246c7.97,0,15.44-.05,22.91.01,6.28.05,10.23,4.12,14.11,8.34,1.81,1.98,3.85,3.74,5.75,5.63,1.1,1.09,3.07,2.29,3.02,3.36-.24,5-.77,10.02-1.71,14.93-1.21,6.33-6.79,6.43-11.46,6.6-10.43.37-20.89.21-31.34.07-4.09-.05-8.34-.05-12.19-1.18-2.07-.61-4.67-3.44-4.9-5.5-.88-7.84-1.27-15.78-1.08-23.66.13-5.44,4.34-8.56,9.9-8.6,2.17-.01,4.33,0,6.99,0Z"/>
  <path class="cls-2" d="M411,230.17c-4.37-.55-6.72-2.35-6.74-6.78-.03-4.54-.75-9.09-.6-13.62.04-1.29,1.82-3.13,3.2-3.66,5.35-2.02,10.75-4.52,16.33-5.16,8.97-1.02,18.11-1.13,27.13-.72,3.17.15,6.17,3.05,6.18,7.21.02,8.62.04,17.25,0,25.87-.03,6.01-2.54,7.95-8.51,7.55-5.8-.39-11.64-.23-17.47-.34-5.03-.1-10.21.7-13.31-5.12-1.13-2.13-3.84-3.42-6.2-5.24Z"/>
  <path class="cls-2" d="M514.12,240.72c-1.07.06-2.38.03-2.49-.34-1.15-3.95-2.44-7.92-2.92-11.98-.15-1.26,2.04-2.8,3.15-4.2,1.21,1.05,2.63,1.95,3.57,3.2.93,1.24,1.3,2.89,2.05,4.28q3.21,5.9-2.82,7.89c-.16.05-.15.59-.54,1.15Z"/>
  <path class="cls-2" d="M449.47,184.11c-.34,1.79-.27,3.47-1.05,4.51-1.48,1.98-3.45,3.61-5.22,5.38-1.23-2.02-3.46-4.04-3.46-6.06,0-3,1.58-6,2.88-10.29,2.89,2.55,4.88,4.3,6.85,6.47Z"/>
  <path class="cls-2" d="M440.69,664c8.05.33,15.62.49,23.16,1.11,1.99.17,3.87,1.79,6.55,3.11-7.82,6.52-15.23,12.03-21.81,18.39-6.14,5.93-11.45,12.73-17.06,19.21-5.45,6.3-9.06,14.28-17.06,18.26-1.53.76-3.62,2.33-3.74,3.68-.62,6.95-8.09,7.43-10.94,12.18-1.18,1.96-2.88,3.6-4.35,5.39-.53.64-1.04,1.29-1.62,1.87-4.87,4.89-9.87,9.66-14.61,14.67-3.79,4.02-8.44,4.48-13.1,2.95-2.15-.71-3.79-3.26-5.44-5.17-2.98-3.43-5.93-6.91-8.64-10.55-1.44-1.93-2.27-4.31-3.53-6.39-1.34-2.23-2.84-4.36-4.3-6.5-.46-.68-1.25-1.18-1.57-1.9-4.68-10.61-10.77-20.88-13.55-31.97-2.87-11.44-2.92-23.67-3.38-35.59-.23-5.99,2.57-8.15,8.59-7.65,12.36,1.01,24.68,2.53,37.01,3.82,1.32.14,2.66.09,3.99.09,18.4,0,36.79-.04,55.19.05,3.25.02,6.5.62,10.23.96Z"/>
  <path class="cls-2" d="M349.72,508.4c1.9-2.36,4.85-4.26,5.05-6.42.49-5.28,4.71-6.95,7.86-9.34,2.35-1.79,6.06-3.26,7.92,1.5.27.69,1,1.64,1.61,1.7,8.01.85,9.26,8.73,13.83,13.13,4.31,4.14,8.85,8.03,13.07,12.25,3.87,3.86,7.31,8.16,11.18,12.01,3.99,3.97,8.32,7.6,12.44,11.45,1.88,1.76,3.67,3.63,5.4,5.55,4.18,4.65,8.3,9.36,12.45,14.03.54.6,1.07,1.24,1.72,1.71,1.72,1.23,4.53,2.02,5.07,3.6,2.48,7.33,9.21,13.44,7.01,22.04-.45,1.75-2.93,3.99-4.69,4.2-4.92.58-9.95.2-14.94.2-4.15,0-8.29,0-12.44,0-27.3,0-54.61-.03-81.91.04-3.42,0-6.86.92-10.27.81-4.6-.14-8.76-7.37-7.5-13.45,1.69-8.15,3.41-16.36,6.03-24.24,2.34-7.04,5.97-13.63,8.89-20.49,1.05-2.47,1.52-5.2,2.55-7.68,3.08-7.45,6.31-14.84,9.67-22.59Z"/>
  <path class="cls-2" d="M448.72,779.29c3.38-3.73,6.5-7.19,9.63-10.64.45-.49.86-1.15,1.42-1.38,9.76-4.01,14.66-13.68,23-19.58,8.15-5.76,14.55-13.98,21.78-21.05,2.01-1.96,4.41-3.52,6.35-5.53,2.04-2.12,3.81-4.51,5.58-6.88,1.03-1.38,1.82-2.95,2.19-3.57,8.15,2.48,7.02,7.84,6.76,12.56-.47,8.67-1.86,17.33-1.8,25.99.08,11.5,1.36,22.98,1.77,34.48.17,4.86-.61,9.75-.91,14.63-.36,5.89-.39,11.82-1.13,17.66-.37,2.92-1.47,6.07-3.17,8.45-4.83,6.76-4.97,14.62-5.59,22.26-.57,7.06-2.28,9.47-9.63,9.21-5.17-.18-10.55-.52-15.42-2.1-8.35-2.7-16.47-6.2-24.51-9.77-7.68-3.42-15.18-7.27-22.66-11.12-1.75-.9-3.01-2.69-4.65-3.85-3.45-2.44-7-4.75-10.52-7.09-4.11-2.74-4.52-11.11-.6-15.57,3.7-4.21,7.37-8.47,11.4-12.35,4.39-4.23,8.43-8.6,10.68-14.77Z"/>
  <path class="cls-2" d="M471.49,511.98c1.65,3.13.2,8.39,6.03,7.6.1-.01.34.24.33.34-.9,7.04,9.1,6.99,8.92,13.63-.02.59.95,1.36,1.62,1.8,3.9,2.58,7.96,4.95,11.77,7.65,5.05,3.58,10.17,7.12,14.73,11.26,1.65,1.5,2.36,4.63,2.51,7.07.75,12.36.32,24.68-1.83,36.92-.4,2.26.23,4.71-.18,6.97-.3,1.62-1.21,3.8-2.47,4.38-1.12.51-3.1-.81-4.69-1.37-2.08-.73-4.11-1.92-6.24-2.14-3.46-.36-6.99.01-10.48-.13-3.78-.15-4.61,1.58-3.64,4.85,2.88-.28,5.62-.88,8.31-.73,3.02.17,5.88.07,7.77,4.11,1.21,2.59,5.65,3.73,8.71,5.4,2.6,1.41,5.29,2.64,7.2,3.57-2.18,3.19-3.87,5.67-5.7,8.36,1.28,1.14,2.32,1.98,3.26,2.92,2.05,2.05,5.06,3.91,1.84,7.3-3.17,3.33-5.82,3.39-9.32.21-3.91-3.56-17.96-.42-19.08,4.52-.5,2.18-.33,5.58,1.02,6.93,4.09,4.06,2.05,9.7,4.47,14.04.28.5.27,1.72,0,1.87-3.02,1.65-6.04,4.09-9.23,4.36-2.05.17-5.15-2.44-6.42-4.6-2.55-4.34-4.29-9.17-6.14-13.89-2.09-5.33.6-9.89,2.79-14.46.27-.56.82-.99,1.43-1.7-.59-.68-1.29-1.19-1.61-1.87-1.7-3.62-5.63-6.81-1.15-11.43,1.53-1.58,1.33-4.84,1.87-7.1,2.65-.94,5.25-1.85,7.85-2.77-.04-.65-.07-1.29-.11-1.94-2.35-.29-4.96-1.33-6.95-.62-1.42.51-1.99,3.38-3.48,6.24-2.7-6.3-5.65-11.96-7.55-17.95-1.61-5.07-.08-6.39,5.27-6.6,1.74-.07,3.46-.59,5.88-1.02-1.13-1.28-1.89-2.11-2.62-2.97-1.89-2.24-3.79-4.48-5.65-6.75-.3-.36-.35-1.19-.64-1.25-5.56-1.28-8.2-5.78-11.16-9.94-2.09-2.93-4.68-5.64-6.14-8.86-3.35-7.41-4.26-14.75-.44-22.77,4.08-8.57,2.66-18.02-.97-26.3-1.8-4.12-2.76-7.83-2.67-12.07.03-1.36.22-2.71.34-4.06,2.21.28,4.45.44,6.61.91.78.17,1.35,1.55,2.09,1.62,5.1.45,8.42,2.56,9.35,8.04.15.91,2.96,1.36,4.59,2.44M493.14,630c-1.12.38-2.24.76-3.65,1.24,5.68,1.08,10.74,2.04,14.39,2.73,1.46-.83,3.26-1.85,5.06-2.88.09-.36.19-.73.28-1.09-5.08,0-10.16,0-16.09,0Z"/>
  <path class="cls-2" d="M517.37,648.02c2.78,5.52,6.25,10.48,6.44,16.98.07,2.53,4.19,4.45,2.75,8.33-1.94,5.21-3.19,10.68-5.2,15.86-1.03,2.66-3.04,2.82-5.69,1.04-1.84-1.24-5.76,1.11-6.31-2.88-.58-4.16-.68-8.39-.8-12.6-.02-.81.73-2.29,1.29-2.37,4.39-.65,4.63-3.57,4.77-7.18.13-3.47-.83-5.57-3.8-7.61-3.83-2.64-3.39-5.02.76-10.95,1.88.48,3.63.92,5.79,1.38Z"/>
  <path class="cls-2" d="M499.85,683.81c1.42,4.31,2.31,8.39,3.73,12.29,1.43,3.92-.58,11.34-4.08,13.41-2.4,1.42-6.69-.41-6.85-3.54-.39-7.41-.35-14.86.06-22.27.07-1.31,2.8-2.47,4.29-3.7.85,1.17,1.7,2.33,2.85,3.81Z"/>
  <path class="cls-2" d="M775.73,710.43c-.56,6.95-2.86,12.76-6.06,18.54-4,7.22-6.83,15.09-10.43,22.55-.71,1.48-2.72,2.29-4,3.55-2.65,2.62-5.22,5.33-7.82,8l.69,1.94c-7.22,0-14.43.09-21.65-.04-3-.05-4.67-1.15-6.32-4.52-2.26-4.59-6.96-7.98-10.58-11.92-1.1-1.2-2.07-2.52-3.1-3.79-2.88-3.56-5.15-8.08-8.81-10.42-3.35-2.14-4.41-4.96-6.4-7.75-2.7-3.79-7.91-5.84-10.46-9.68-4.53-6.82-12.33-10.35-16.17-17.93-2.1-4.15-6.82-6.93-10.14-10.54-5.6-6.08-11.33-12.08-16.43-18.57-3.19-4.07,1.95-12.98,7.27-12.76,8.14.34,16.3.97,24.38,2.04,7.47.99,14.61,3.07,22.48,2.13,9-1.08,18.23-.25,27.37-.25,8.31,0,16.64-.39,24.92.11,7.92.48,15.76,2.11,23.68,2.77,2.76.23,5.75-.64,8.45-1.57,3.8-1.31,7.05.1,9.5,2.31,1.32,1.19,2.08,4.93,1.2,6.31-7.03,10.97-5.36,24.44-10.71,35.82-.46.98-.45,2.19-.86,3.68Z"/>
  <path class="cls-2" d="M670.28,834.68c-10.2,4.95-20.64,8.8-29.86,14.58-6.82,4.27-14.56,3.53-21.32,6.73-2.15,1.02-4.44,1.81-6.47,3.03-5.97,3.6-12.65,4.16-19.1,3.16-2.56-.39-5.94-3.99-6.56-6.68-1.55-6.73-1.98-13.76-2.39-20.7-.36-5.97-.3-12,.05-17.98.11-1.97,1.62-3.91,2.63-5.78,2.69-4.97,6-9.69,8-14.92,1.1-2.89.86-4.85,4.92-3.57,2.23.7,5.06-.54,8.06-.96-2.6-4.56-2.88-10.23-7.35-14.2-.86-.76.68-4.34,1.26-6.58.46-1.75,1.17-3.45,1.97-5.76-6.86.33-12.84.61-19.58.93,0-4.72-.02-9.43,0-14.14.03-5.79.27-11.59.07-17.38-.13-3.76-.05-6.79,3.84-9.09,7.37-4.35,16-2.9,21.21,4.1.52.71,1.5,1.27,2.37,1.49,6.44,1.62,9.38,6.34,11.58,12.13.78,2.03,3.06,3.49,4.63,5.23,3.4,3.77,9.87,4.41,10.85,10.73.15.99,1.01,2.15,1.87,2.71,4.02,2.61,8.65,4.51,12.14,7.68,4.46,4.05,7.89,9.2,12.02,13.63,2.97,3.18,5.92,7.15,9.71,8.59,3.96,1.5,4.64,4.43,4.36,6.82-.3,2.57-2.04,5.76-6.02,5.54-7.38-.4-14.77-.85-22.15-.94-4.04-.05-8.09.76-12.14.82-1.25.02-3.58-1.11-3.62-1.8-.32-6.35-5.59-5.85-9.45-6.87-3.27-.86-6.78-1.15-10.17-1.11-1.82.02-3.62,1.27-5.42,1.97.03.74.07,1.47.1,2.21,7.18,1.12,14.36,2.25,21.73,3.4-.75,5,3.64,4.98,6.97,5.21,8.86.62,17.76.72,26.65,1.09,4.05.17,8.11.37,12.13.81,5.22.57,6.39,5.9,9.64,8.81.71.64.69,3.42-.04,4.15-5.01,4.98-9.04,11.37-17.13,12.92M602,760c.14,1.26.27,2.53.41,3.79,1.82-2.13,2.55-4.2,2.92-6.33.32-1.89.26-3.86.24-5.79,0-.07-1.89-.26-1.91-.17-.52,2.29-.92,4.61-1.31,6.92-.05.3.07.63-.34,1.58Z"/>
  <path class="cls-2" d="M691.5,798.15c1.18-3.07,2.3-5.72,3.55-8.31,1.31-2.72,3.07-5.29,3.92-8.13.26-.87-1.59-2.99-2.88-3.49-.79-.31-3.08,1.12-3.44,2.19-1.11,3.32-1.61,6.85-2.38,10.43-2.7-.64-5.45-.89-7.83-1.97-2.2-1-5.08-1.26-5.26-5.29-.08-1.93-3.48-3.83-5.54-5.54-1.59-1.32-3.39-2.4-5.19-3.43-2.25-1.29-4.6-2.42-7.61-3.99.48-3.77-2.08-5.94-7.31-5.64,1.16-4.92-1.49-7.42-5.49-8.81-6.23-2.17-3.39-7.61-3.22-11.09.42-8.3,14.16-13.31,20.76-8.01.87.7.99,2.25,1.74,3.17,6.15,7.53,11.59,15.9,18.83,22.18,4.59,3.98,8.45,10.71,16.27,10,1.85-.17,3.69-.34,5.54-.48,4.06-.32,8.13-.66,12.2-.89.54-.03,1.4.39,1.62.85,2,4.05,5.43,5.39,9.64,6.39,1.7.4,2.69,3.78,4.07,5.91,1.06-3.13,3.01-6.03,2.66-8.62-.41-3.09,1.61-2.9,2.86-3.31,3.03-1.01,6.19-1.8,9.36-2.23,7.5-1.02,11.7,2.57,12.08,10.4.24,4.92,1.42,9.22,3.81,13.71,2.72,5.12,3.53,11.24,5.27,16.89.46,1.5,1.01,3.1,1.96,4.31,5.03,6.4,3.39,11.28-1.87,17.63-3.47,4.2-8.99,6.46-10.84,13.1-1.16,4.19-8.41,6.83-13.13,9.84-4.74,3.02-9.39.68-13.96-.98-.59-.21-1.43-.51-1.6-.98-2.07-5.59-9.15-7.65-9.89-14.36-.18-1.67-2.43-3.19-3.87-4.64-3.5-3.52-7.57-6.61-10.47-10.57-1.72-2.35-2.55-6.14-2.13-9.05.51-3.54-.95-4.48-3.55-5.39-8.51-2.97-8.68-3.22-8.69-11.85M741.5,824.2l-.42-9.94c-.63.03-1.26.06-1.88.1v15.31c.37.05.73.09,1.1.14.4-1.57.8-3.15,1.2-5.61M739.39,793.68v11.12c2.26-3.89,3.29-7.78,0-11.12Z"/>
  <path class="cls-2" d="M612.54,717.03c-2.95.31-5.49.91-8.02.91-4.88,0-9.78,2.57-14.64.04-1.5-.79-3.21-1.55-4.19-2.82-.47-.6.25-3.17.94-3.41,1.49-.53,3.41-.5,4.96-.03,3.38,1.01,5.63.29,8-2.55,3.12-3.73,7.41-6.5,10.44-10.28,2.09-2.61,3.85-6.18,4.05-9.43.24-3.99-1.45-8.19,6.18-8.43,1.22,6.8,2.48,13.82,4.02,22.37,1.81-2.17,2.89-3.69,4.2-4.97,1.51-1.47,3.22-2.72,4.84-4.07,1.06,1.74,2.89,3.42,3.05,5.24.92,10.61,1.6,21.25,2,31.89.08,2.06-1.08,4.43-2.35,6.15-.67.91-3.07,1.37-4.24.91-3.46-1.36-6.69-3.27-10.02-4.97-.34.43-.69.86-1.03,1.29-.08-1.43-.09-2.86-.26-4.27-.11-.94-.33-2.62-.69-2.67-5.95-.83-5.32-5.33-5.54-9.45-.03-.5-.84-.95-1.71-1.45M614.54,715.34c1.77,2.47,4.75,2.66,5.43.23.9-3.22,3.38-7.39-1.58-10.79-1.33,3.33-2.61,6.54-3.85,10.57Z"/>
  <path class="cls-2" d="M622.22,625.35c-1.54-6.25-3.22-12.21.35-17.83,1.12-1.77,2.86-3.41,4.7-4.4,2.45-1.31,6.44-3.47,7.71-2.52,2.96,2.22,5.59,5.8,6.71,9.35,1.37,4.36,2.26,9.55,1.18,13.83-1.77,7.03-5.27,13.63-8.09,20.39-.16.37-.74.57-.4.32-3.68-4.16-7.47-7.95-10.61-12.22-1.2-1.62-.91-4.34-1.54-6.92Z"/>
  <path class="cls-2" d="M597.28,703.99c-1.77-.42-4.03-.5-4.36-1.34-2.82-7.2-10.54-6.31-15.38-9.9-1.94-1.44-2.74-5.31-2.8-8.1-.04-1.86,1.77-4.19,3.39-5.54,2.01-1.67,5.67-1.23,5.69-5.43,0-.9,2.83-2.59,4.22-2.46,1.57.15,3.02,1.89,4.44,3.04,1.5,1.21,2.7,3,4.38,3.71,7.48,3.19,10.16,6.74,9.64,13.55-.05.66,0,1.85-.19,1.9-5.68,1.26-4.56,8.04-9.03,10.56Z"/>
  <path class="cls-2" d="M589.4,787c-3.5.27-4.22-2.24-3.65-4.03.43-1.33,2.92-2.83,4.41-2.74,1.59.09,3.09,1.95,4.62,3.03-1.66,1.25-3.32,2.49-5.39,3.74Z"/>
  <path class="cls-2" d="M689.15,270.14c-3.63-3.61-7.43-6.65-10.13-10.46-1.2-1.7-.21-4.95-.22-7.5,1.32.16,2.64.46,3.95.44,8.73-.14,11.86,7.15,16.21,12.5,4.23,5.21,7.71,11.04,12.06,17.41-3.36,1.15-6.47,2.21-9.45,3.22-4.03-5.09-8.09-10.23-12.43-15.61Z"/>
  <path class="cls-2" d="M601.66,543.51c-1.97,1.06-3.99,1.47-5.53,2.56-1.19.85-1.83,2.53-2.61,3.9-.3.53-.29,1.24-.44,1.86-.03.13-13.34,4.28-13.45,4.19-1.27-1.04-3.53-2.02-3.63-3.17-.68-8.21-1.84-16.76,3.31-23.99,2.24-3.15,5.77-5.49,9.01-7.78,3.03-2.14,6.87-3.18,7.6-7.74.15-.94,2.16-1.7,3.44-2.29.69-.32,1.95.22,2.41-.21,4.31-4.02,8.51-8.15,12.72-12.27.83-.81,1.87-2.54,2.38-2.39,4.59,1.38,5.51-1.38,5.89-4.49,1.76-.83,3.86-1.16,4.75-2.37,2.91-3.97,5.25-8.36,8.1-12.39.92-1.3,2.68-2.02,4.11-2.93,2.91-1.87,5.85-3.7,8.46-6.26,7.06,1.12,15.07-6.9,22.68,1.23-4.91,4.77-5.65,13.16-14.05,15.2-1.36.33-2.5,2.68-3.21,4.33-2.27,5.31-6.49,8.47-11.27,11.24-1.56.91-3.1,2.34-3.96,3.91-2.83,5.12-7.31,8.27-12.17,11.09-.94.55-2.53,1.35-2.5,1.97.25,5.07-4.1,6.58-6.78,9.44-5.17,5.53-10.08,11.31-15.25,17.35Z"/>
  <path class="cls-2" d="M502.73,483.72c.73,1.41,1.92,3.13,1.54,3.59-2.63,3.29-5.58,6.32-8.68,9.7-3.53-5.89-4.2-12.65-1.79-14.74,3.22-2.81,6.01-.99,8.93,1.45Z"/>
  <path class="cls-1" d="M482.85,283.16c-2.66,3.55-5.09,6.79-7.37,10.13-2.3,3.38-5.31,3.69-8.47,1.77-3.56-2.17-6.86-4.75-10.42-7.26q10.66-4.2,22.17-2.4c1.69-2.74-.45-8.08,6.18-8.54-.69,2.3-1.24,4.17-2.1,6.3Z"/>
  <path class="cls-1" d="M493.57,630c5.51,0,10.58,0,15.66,0-.09.36-.19.73-.28,1.09-1.8,1.03-3.61,2.05-5.06,2.88-3.64-.69-8.7-1.65-14.39-2.73,1.41-.48,2.53-.86,4.07-1.24Z"/>
  <path class="cls-1" d="M602.23,759.68c.19-.63.06-.96.11-1.26.39-2.32.79-4.64,1.31-6.92.02-.09,1.91.1,1.91.17.01,1.93.08,3.9-.24,5.79-.36,2.13-1.1,4.2-2.92,6.33-.14-1.26-.27-2.53-.18-4.11Z"/>
  <path class="cls-1" d="M741.5,824.65c-.4,2.02-.8,3.59-1.2,5.16-.37-.05-.73-.09-1.1-.14v-15.31c.63-.03,1.26-.06,1.88-.1.14,3.31.28,6.63.42,10.38Z"/>
  <path class="cls-1" d="M739.71,793.39c2.97,3.62,1.94,7.51-.32,11.4,0-3.71,0-7.41.32-11.4Z"/>
  <path class="cls-1" d="M614.52,714.93c1.26-3.62,2.54-6.82,3.87-10.16,4.96,3.41,2.48,7.57,1.58,10.79-.68,2.43-3.66,2.24-5.45-.64Z"/>
</svg>